<?xml version="1.0" standalone="no"?>
<!DOCTYPE svg PUBLIC "-//W3C//DTD SVG 1.1//EN" "http://www.w3.org/Graphics/SVG/1.1/DTD/svg11.dtd" >
<svg xmlns="http://www.w3.org/2000/svg">
<metadata></metadata>
<defs>
<font id="zantrokeregular" horiz-adv-x="1556" >
<font-face units-per-em="2048" ascent="1556" descent="-492" />
<missing-glyph horiz-adv-x="819" />
<glyph unicode="&#xfb01;" horiz-adv-x="1843" d="M37 1118l49 -4q106 -8 160 -8q-8 94 -8 145q0 72 25.5 128.5t66.5 91t98 57t114.5 31t121.5 8.5q132 0 280 -37l-6 -236q-52 6 -102 6q-89 0 -138 -30t-49 -107q0 -27 6 -57q54 0 160 8l49 4l-4 -260l-205 2v-614q61 0 140 12l49 8l-10 -268q-301 6 -383 6l-383 -6 l-11 268l49 -8q80 -12 140 -12v614l-205 -2zM979 266l49 -8q64 -12 160 -12v737q-96 0 -160 -12l-49 -8l4 268l369 -6l266 6q0 -24 -10.5 -114t-10.5 -134v-737q96 0 160 12l49 8l-4 -268l-409 6l-410 -6zM1219 1536q0 78 53 126t121 48q78 0 126 -53t48 -121 q0 -78 -53 -126t-121 -48q-78 0 -126 53t-48 121z" />
<glyph unicode="&#xfb02;" horiz-adv-x="1843" d="M37 1118l49 -4q106 -8 160 -8q-8 94 -8 145q0 72 25.5 128.5t66.5 91t98 57t114.5 31t121.5 8.5q128 0 260 -37l-6 -236q-34 6 -82 6q-89 0 -138 -30t-49 -107q0 -27 6 -57q42 0 201 6l111 6l-4 -260l-308 2v-614q61 0 140 12l49 8l-10 -268q-301 6 -383 6l-383 -6 l-11 268l49 -8q80 -12 140 -12v614l-205 -2zM979 266l49 -8q64 -12 160 -12v1065q-81 0 -150 -13l-49 -8l4 269l359 -7l266 7q0 -24 -10.5 -114t-10.5 -134v-1065q96 0 160 12l49 8l-4 -268l-409 6l-410 -6z" />
<glyph unicode="&#xfb03;" horiz-adv-x="2703" d="M37 1118l49 -4q106 -8 160 -8q-8 94 -8 145q0 72 25.5 128.5t66.5 91t98 57t114.5 31t121.5 8.5q132 0 280 -37l-6 -236q-52 6 -102 6q-89 0 -138 -30t-49 -107q0 -27 6 -57q17 0 74 -2t86 -2h131q28 0 86 2t74 2q-8 94 -8 145q0 72 25.5 128.5t66.5 91t98 57t114.5 31 t121.5 8.5q132 0 280 -37l-6 -236q-52 6 -102 6q-89 0 -138 -30t-49 -107q0 -22 7 -57q53 0 159 8l49 4l-4 -260l-204 2v-614q60 0 139 12l49 8l-10 -268q-301 6 -383 6l-383 -6l-10 268l49 -8q80 -12 139 -12v614l-205 6l-246 -6v-614q61 0 140 12l49 8l-10 -268 q-301 6 -383 6l-383 -6l-11 268l49 -8q80 -12 140 -12v614l-205 -2zM1839 266l49 -8q64 -12 160 -12v737q-96 0 -160 -12l-49 -8l4 268l369 -6l266 6q0 -24 -10 -114t-10 -134v-737q95 0 159 12l49 8l-4 -268l-409 6l-410 -6zM2079 1536q0 78 53 126t121 48q78 0 126 -53 t48 -121q0 -78 -53 -126t-121 -48q-78 0 -126 53t-48 121z" />
<glyph unicode="&#xfb04;" horiz-adv-x="2703" d="M37 1118l49 -4q106 -8 160 -8q-8 94 -8 145q0 72 25.5 128.5t66.5 91t98 57t114.5 31t121.5 8.5q132 0 280 -37l-6 -236q-52 6 -102 6q-89 0 -138 -30t-49 -107q0 -27 6 -57q17 0 74 -2t86 -2h131q28 0 86 2t74 2q-8 94 -8 145q0 72 25.5 128.5t66.5 91t98 57t114.5 31 t121.5 8.5q132 0 280 -37l-6 -236q-52 6 -102 6q-89 0 -138 -30t-49 -107q0 -22 7 -57q16 0 53 1.5t83 3.5t64 3l111 4l-4 -260l-307 2v-614q60 0 139 12l49 8l-10 -268q-301 6 -383 6l-383 -6l-10 268l49 -8q80 -12 139 -12v614l-205 6l-246 -6v-614q61 0 140 12l49 8 l-10 -268q-301 6 -383 6l-383 -6l-11 268l49 -8q80 -12 140 -12v614l-205 -2zM1839 266l49 -8q64 -12 160 -12v1065q-91 0 -160 -13l-49 -8l4 269l369 -7l266 7q0 -24 -10 -114t-10 -134v-1065q95 0 159 12l49 8l-4 -268l-409 6l-410 -6z" />
<glyph horiz-adv-x="0" />
<glyph unicode="&#xd;" horiz-adv-x="0" />
<glyph unicode=" "  horiz-adv-x="819" />
<glyph unicode="&#x09;" horiz-adv-x="819" />
<glyph unicode="&#xa0;" horiz-adv-x="819" />
<glyph unicode="!" horiz-adv-x="573" d="M82 1516h410l-72 -1024h-266zM123 123q0 73 50 118.5t114 45.5q73 0 118.5 -50t45.5 -114q0 -73 -50 -118.5t-114 -45.5q-73 0 -118.5 50t-45.5 114z" />
<glyph unicode="&#x22;" horiz-adv-x="737" d="M49 1552l270 17q3 -30 3 -60q0 -58 -17 -211l-20 -170l-232 19l8 147q5 68 5 86q0 89 -17 172zM418 1552l270 17q2 -20 2 -60q0 -67 -16 -211l-21 -170l-231 19l8 147q4 54 4 86q0 94 -16 172z" />
<glyph unicode="#" horiz-adv-x="1310" d="M47 369l29 245h203l22 246h-205l29 246h203l22 246h246l-23 -246h246l23 246h245l-22 -246h205l-29 -246h-203l-22 -246h205l-29 -245h-203l-22 -246h-246l22 246h-245l-23 -246h-246l23 246h-205zM524 614h246l23 246h-246z" />
<glyph unicode="$" horiz-adv-x="1310" d="M41 98v475h264q9 -98 83.5 -159.5t184.5 -79.5v252q-58 16 -99 29t-96 35t-93.5 44t-79.5 55.5t-66 70.5t-41 87.5t-16 108.5q0 161 125.5 251.5t365.5 102.5v146h164v-152q116 -19 207 -84q0 40 2 63l2 29l219 4v-434h-241q0 61 -54.5 114t-134.5 77v-242 q51 -13 81.5 -22t81 -25t82.5 -29.5t74.5 -35t70 -43t57.5 -51.5t47 -62.5t28 -74t11 -87.5q0 -163 -136.5 -254t-396.5 -103v-145h-164v150q-77 12 -154 45.5t-134 81.5q0 -26 -4 -84l-2 -50zM440 1057q0 -71 133 -119v205q-133 -15 -133 -86zM737 332q144 15 144 88 q0 39 -37 67t-107 52v-207z" />
<glyph unicode="%" horiz-adv-x="1638" d="M41 1178q0 164 103 251t266 87q166 0 267 -89t101 -249q0 -162 -104 -250t-264 -88q-163 0 -266 90.5t-103 247.5zM98 100l639 709l617 725l186 -160l-651 -721l-604 -712zM328 1178q0 -70 28 -102t54 -32q27 0 54.5 33.5t27.5 100.5q0 70 -28 101.5t-54 31.5 q-27 0 -54.5 -33t-27.5 -100zM860 317q0 164 103 251t266 87q166 0 267 -89t101 -249q0 -162 -104 -249.5t-264 -87.5q-163 0 -266 90t-103 247zM1147 317q0 -70 28 -101.5t54 -31.5q27 0 54.5 33t27.5 100q0 70 -28 102t-54 32q-27 0 -54.5 -33.5t-27.5 -100.5z" />
<glyph unicode="&#x26;" horiz-adv-x="1638" d="M41 293q0 185 105.5 334t273.5 215q-113 167 -113 266q0 190 117.5 288.5t341.5 98.5q153 0 248 -74t123 -213l-176 -78q-12 64 -68.5 112t-126.5 48q-84 0 -128 -46.5t-44 -135.5q0 -35 18.5 -77t42.5 -76.5t64.5 -79t66 -69t64.5 -61.5l237 -221q30 48 54 119 q16 46 16 90q0 109 -104 146q-51 17 -88 22q24 73 55.5 104t87.5 31q46 0 130 -43t128 -43q32 0 48 17.5t36 62.5h182l-37 -139q-36 -139 -159 -139q-43 0 -99 16q-18 -207 -114 -373l92 -84q54 -49 145 -49q54 0 139 25l7 -287q-98 -37 -232 -37q-133 0 -238 42t-157 124 q-223 -154 -496 -154q-199 0 -320.5 87.5t-121.5 230.5zM369 451q0 -101 74 -154t214 -53q104 0 193 47l-340 428q-63 -43 -102 -114t-39 -154z" />
<glyph unicode="'" horiz-adv-x="368" d="M49 1552l270 17q3 -30 3 -60q0 -58 -17 -211l-20 -170l-232 19l8 147q5 68 5 86q0 89 -17 172z" />
<glyph unicode="(" horiz-adv-x="737" d="M20 532q0 217 74 421.5t217 368t332 247.5l88 -180q-98 -43 -167.5 -176.5t-101.5 -308t-32 -372.5t32 -372t101.5 -307.5t167.5 -176.5l-88 -180q-189 84 -332 247.5t-217 367.5t-74 421z" />
<glyph unicode=")" horiz-adv-x="737" d="M6 -324q98 43 167.5 176.5t101.5 307.5t32 372t-32 372.5t-101.5 308t-167.5 176.5l88 180q189 -84 332 -247.5t217 -368t74 -421.5t-74 -421t-217 -367.5t-332 -247.5z" />
<glyph unicode="*" horiz-adv-x="860" d="M37 1337q0 85 110 152q36 -6 85 -41.5t96 -80t55 -50.5q-5 16 -29 70t-42.5 109.5t-18.5 98.5q3 2 22 14.5t24.5 15.5t21 12t24.5 12.5t21.5 6.5t23.5 3q22 0 44.5 -8t33 -14.5t33.5 -24t26 -19.5q0 -42 -19.5 -99.5t-43.5 -111t-27 -65.5q13 9 59.5 52t93.5 77.5 t83 42.5q51 -31 80.5 -71t29.5 -81q0 -46 -24 -112q-49 -17 -94 -17q-46 0 -120 8.5t-77 8.5q14 -10 69.5 -41.5t102.5 -64.5t65 -62q-26 -84 -57 -115q-8 -8 -17 -14.5t-16.5 -10.5t-20 -7.5t-18.5 -5.5t-22 -4t-21.5 -2.5t-24.5 -2.5t-24 -2q-25 25 -44.5 82.5 t-32.5 122.5t-17 76q-6 -16 -20 -78.5t-32.5 -118.5t-41.5 -84q-109 7 -148 35q-17 13 -31.5 36t-21 39t-20.5 54q14 22 49 49.5t66.5 47.5t72 43.5t49.5 29.5q-9 0 -85.5 -7.5t-119.5 -7.5q-35 0 -86 15q-24 70 -24 110z" />
<glyph unicode="+" horiz-adv-x="1064" d="M41 604v266q217 -6 367 -8l-9 367h267q-7 -217 -9 -367l367 8v-266q-217 6 -367 8l9 -366h-267q7 216 9 366z" />
<glyph unicode="," horiz-adv-x="409" d="M31 -203l73 94q25 33 25 86q-42 23 -65 62.5t-23 83.5q0 70 49.5 117t114.5 47q70 0 117 -49.5t47 -114.5q0 -184 -156 -340l-84 -84z" />
<glyph unicode="-" horiz-adv-x="901" d="M41 604v266q328 -10 410 -10l409 10v-266q-327 10 -409 10z" />
<glyph unicode="." horiz-adv-x="409" d="M41 123q0 73 50 118.5t114 45.5q73 0 118.5 -50t45.5 -114q0 -73 -50 -118.5t-114 -45.5q-73 0 -118.5 50t-45.5 114z" />
<glyph unicode="/" horiz-adv-x="1474" d="M51 -172l1166 1821l206 -133l-1165 -1821z" />
<glyph unicode="0" horiz-adv-x="1474" d="M41 737q0 369 178 563.5t518 194.5t518.5 -194.5t178.5 -563.5t-178.5 -563t-518.5 -194t-518 194t-178 563zM451 737q0 -249 83.5 -380.5t243.5 -131.5q120 0 183 131.5t63 380.5t-84 380.5t-244 131.5q-120 0 -182.5 -131.5t-62.5 -380.5zM594 625v225q110 -10 143 -10 l142 10v-225q-109 10 -142 10z" />
<glyph unicode="1" horiz-adv-x="983" d="M57 870l4 340l390 260l307 7q0 -24 -10.5 -114t-10.5 -134v-983q96 0 160 12l49 8l-4 -268l-410 6l-430 -6l-4 268l49 -8q64 -12 181 -12v850q-21 -14 -86.5 -69.5t-73.5 -61.5z" />
<glyph unicode="2" horiz-adv-x="1392" d="M53 305l617 522q41 33 68.5 58.5t58.5 60t47 70t16 69.5q0 78 -67 121t-179 43q-135 0 -195.5 -58.5t-78.5 -186.5h-285v507l262 5l2 -54v-76q59 51 169.5 80t207.5 29q124 0 222 -21t163.5 -57t108.5 -87.5t61.5 -110.5t18.5 -127q0 -101 -77.5 -210.5t-215.5 -209.5 l-592 -426h205q86 0 130.5 1t106 6.5t91.5 17.5t67.5 33t55.5 53.5t33.5 79.5t21.5 110l243 -23l-53 -544q-614 20 -778 20h-102l-349 -14z" />
<glyph unicode="3" horiz-adv-x="1392" d="M10 291l213 125q54 -75 163.5 -133t238.5 -58q158 0 241.5 52.5t83.5 152.5q0 110 -88 178t-233 68h-137v246h75q135 0 218 50.5t83 133.5q0 143 -219 143q-274 0 -309 -245h-258v495l244 -4v-33q-4 -54 -4 -76q61 53 148.5 81t178.5 28q298 0 443 -95t145 -294 q0 -102 -75.5 -180t-211.5 -121q192 -45 301 -143.5t109 -231.5q0 -220 -175.5 -335t-508.5 -115q-217 0 -392.5 84.5t-273.5 226.5z" />
<glyph unicode="4" horiz-adv-x="1515" d="M53 694l561 803l410 -27l410 7l4 -269l-49 9q-64 12 -160 12v-606l254 8v-234l-254 -2v-149q72 0 160 10l49 6l-4 -264l-410 6l-410 -6l-4 262l49 -4q138 -10 160 -10v147q-49 0 -105.5 -1t-58.5 -1l-249 -2l-349 -14zM426 614h393v684z" />
<glyph unicode="5" horiz-adv-x="1392" d="M10 291l213 125q138 -191 344 -191q167 0 254.5 73.5t87.5 213.5t-72 213.5t-208 73.5q-137 0 -204 -60.5t-85 -185.5h-285v309l31 623q328 -10 348 -10h74q92 0 146 0.5t114.5 2t91.5 3.5t66.5 7t51.5 11.5t33.5 17t26.5 22.5t17 30l243 -23l-59 -411q-37 11 -99 26.5 t-213 41.5t-255 26h-357l-18 -293q61 52 150.5 80t181.5 28q337 0 513.5 -136t176.5 -396t-182 -396t-529 -136q-195 0 -347 85t-251 226z" />
<glyph unicode="6" horiz-adv-x="1474" d="M41 737q0 369 199.5 563.5t578.5 194.5q152 0 305.5 -36.5t235.5 -100.5l-170 -246q-111 84 -209 110.5t-203 26.5q-234 0 -303 -274q123 69 277 69q310 0 500 -146.5t190 -385.5q0 -260 -180.5 -396t-524.5 -136q-339 0 -517.5 194t-178.5 563zM463 555 q0 -148 75.5 -239t198.5 -91q144 0 219.5 73.5t75.5 213.5q0 129 -77 208t-203 79q-141 0 -215 -62t-74 -182z" />
<glyph unicode="7" horiz-adv-x="1372" d="M33 971l49 524q547 -20 711 -20h262l313 14l-22 -252q-40 -48 -102.5 -117.5t-99.5 -111.5t-88 -109.5t-81 -123t-64 -139t-52 -171.5t-30 -207t-12 -258h-61l-348 -14l-5 155q0 115 35 237t90.5 225.5t122.5 201.5t134.5 173.5t123 133t90.5 87.5l35 30h-321 q-73 0 -112.5 -0.5t-89 -4.5t-74 -11.5t-54.5 -21.5t-43.5 -33.5t-28.5 -50t-22 -68.5t-13 -91z" />
<glyph unicode="8" horiz-adv-x="1474" d="M53 410q0 134 106.5 235t305.5 150q-140 48 -214.5 137.5t-74.5 193.5q0 369 561 369t561 -369q0 -102 -73 -182t-215 -129q199 -49 315.5 -160t116.5 -245q0 -209 -180.5 -319.5t-524.5 -110.5q-333 0 -508.5 110.5t-175.5 319.5zM340 410q0 -88 111 -136.5t307 -48.5 q133 0 203.5 48t70.5 137q0 91 -70.5 157.5t-183.5 106.5q-83 -11 -156 -31t-139 -51t-104.5 -78t-38.5 -104zM504 1126q0 -76 53.5 -137.5t159.5 -75.5q69 17 119 33t104.5 41.5t83.5 60.5t29 78q0 65 -90.5 114.5t-245.5 49.5q-104 0 -158.5 -42t-54.5 -122z" />
<glyph unicode="9" horiz-adv-x="1474" d="M33 963q0 260 180 396t524 136q339 0 518 -194.5t179 -563.5t-199.5 -563t-579.5 -194q-152 0 -305 36.5t-235 100.5l170 245q111 -84 208.5 -110.5t202.5 -26.5q234 0 303 275q-124 -70 -276 -70q-310 0 -500 147t-190 386zM442 963q0 -129 77.5 -208t203.5 -79 q141 0 215 62t74 182q0 148 -76 238.5t-199 90.5q-145 0 -220 -73t-75 -213z" />
<glyph unicode=":" horiz-adv-x="409" d="M41 123q0 73 50 118.5t114 45.5q73 0 118.5 -50t45.5 -114q0 -73 -50 -118.5t-114 -45.5q-73 0 -118.5 50t-45.5 114zM41 1024q0 73 50 118.5t114 45.5q73 0 118.5 -50t45.5 -114q0 -73 -50 -118.5t-114 -45.5q-73 0 -118.5 50t-45.5 114z" />
<glyph unicode=";" horiz-adv-x="409" d="M31 -203l73 94q25 33 25 86q-42 23 -65 62.5t-23 83.5q0 70 49.5 117t114.5 47q70 0 117 -49.5t47 -114.5q0 -184 -156 -340l-84 -84zM41 1024q0 73 50 118.5t114 45.5q73 0 118.5 -50t45.5 -114q0 -73 -50 -118.5t-114 -45.5q-73 0 -118.5 50t-45.5 114z" />
<glyph unicode="&#x3c;" horiz-adv-x="983" d="M33 670v139l667 573l218 -262l-633 -379v-8l633 -399l-232 -252z" />
<glyph unicode="=" horiz-adv-x="1064" d="M41 379v266q409 -10 491 -10l492 10v-266q-410 10 -492 10zM41 829v267q409 -11 491 -11l492 11v-267q-410 11 -492 11z" />
<glyph unicode="&#x3e;" horiz-adv-x="983" d="M66 334l632 399v8l-632 379l217 262l667 -573v-139l-653 -588z" />
<glyph unicode="?" horiz-adv-x="1310" d="M55 1004v507l262 5l2 -54v-76q59 51 169.5 80t207.5 29q124 0 222 -21t163.5 -57t108.5 -87.5t61.5 -110.5t18.5 -127q0 -109 -76 -224t-217 -196l-191 -109l-2 -133l-342 -14l-4 209l232 202q98 87 131 126q59 71 59 132q0 78 -67 121t-179 43q-135 0 -195.5 -58.5 t-78.5 -186.5h-285zM451 123q0 73 49.5 118.5t113.5 45.5q73 0 118.5 -50t45.5 -114q0 -73 -50 -118.5t-114 -45.5q-73 0 -118 50t-45 114z" />
<glyph unicode="@" horiz-adv-x="1843" d="M31 504q0 200 81.5 382t218.5 312.5t325 207.5t393 77q152 0 280.5 -42.5t216 -113.5t149 -165t89.5 -195t28 -205q0 -293 -142 -465t-382 -172l-147 2l-51 111l-410 -121q-151 0 -229 94.5t-78 277.5q0 284 115.5 452.5t312.5 168.5l321 -70l74 68l262 4l-96 -856 q63 10 127 49q92 58 146.5 173t54.5 276q0 90 -25 176.5t-78.5 164.5t-129.5 137t-185 93.5t-238 34.5q-144 0 -278.5 -43t-242.5 -122t-189 -183.5t-125.5 -233.5t-44.5 -266q0 -103 26 -197t80 -175.5t131.5 -141.5t186.5 -94.5t239 -34.5q226 0 430 102l51 -108 q-237 -117 -491 -117q-154 0 -283.5 42.5t-219 115t-152.5 170t-92 206t-29 224.5zM694 518q0 -201 142 -201l200 33l64 510l-193 33q-99 0 -156 -100.5t-57 -274.5z" />
<glyph unicode="A" horiz-adv-x="1679" d="M20 262q61 -12 89 -12q26 0 39 11.5t24 39.5l68 160l-117 -2v291q102 -9 233 -21l152 352q92 216 92 435l424 -41l330 -787h205v-229l-111 2l65 -158q13 -31 23.5 -41t32.5 -10q23 0 90 10l-4 -264l-461 4l-266 -4l-4 264l49 -6q92 -10 121 -10l-95 225q-55 2 -118 2 q-125 0 -371 -6l-94 -221q2 0 116 8l50 4l-4 -260l-271 4l-282 -4zM614 705q180 -17 267 -17h28l-147 356z" />
<glyph unicode="B" d="M37 268l53 -12q74 -14 156 -14v991q-82 0 -156 -14l-53 -13l4 269l778 20q275 0 414 -99t139 -311q0 -93 -44.5 -169.5t-127.5 -129.5q149 -48 232.5 -140.5t83.5 -215.5q0 -208 -149.5 -329t-424.5 -121l-901 20zM655 233l123 -2q162 0 245 59.5t83 153.5 q0 89 -82.5 142t-245.5 53l-123 -2v-404zM655 879l113 -2q150 0 213 44.5t63 149.5q0 96 -70 134t-226 38l-93 -2v-362z" />
<glyph unicode="C" horiz-adv-x="1474" d="M41 737q0 369 189 563.5t548 194.5q193 0 350 -104v75l2 50l263 -5v-507h-283h-2v8q-24 118 -101 177.5t-229 59.5q-160 0 -243.5 -131.5t-83.5 -380.5t105 -380.5t304 -131.5q71 0 134 23t109.5 62t79 78.5t58.5 84.5l213 -123q-95 -165 -257.5 -267.5t-377.5 -102.5 q-379 0 -578.5 194t-199.5 563z" />
<glyph unicode="D" horiz-adv-x="1597" d="M37 268l53 -12q74 -14 156 -14v991q-82 0 -156 -14l-53 -13l4 269l633 14q2 0 141 3t141 3q101 0 188.5 -33.5t152 -91t115 -132t81.5 -160t47 -172t16 -169.5q0 -101 -22 -204t-70 -203t-116.5 -177.5t-170 -125t-221.5 -47.5q-2 0 -141 3t-141 3l-633 14zM655 233 l82 -2q200 0 305 129.5t105 376.5t-105 376.5t-305 129.5l-82 -2v-1008z" />
<glyph unicode="E" d="M35 1206l10 269h490q73 0 287.5 10.5t392.5 20.5l178 10l45 -545l-283 -29q-9 57 -24 100t-33.5 74t-47.5 51.5t-57 33t-72 18.5t-83 8t-99 2h-125v-410q51 0 88.5 13t69.5 47t48.5 58t49.5 81q9 14 13 22l98 -61v-524l-98 -41q-5 9 -25.5 44.5t-27 46t-25.5 39t-29.5 38 t-31 28.5t-38 25.5t-41.5 13t-51 6.5v-409h138q61 0 102.5 2t90.5 10t82 22.5t67.5 40t57.5 62t42.5 89.5t30.5 122l282 -29l-53 -606q-758 41 -922 41h-485l-10 268l49 -8q93 -14 119 -14v983q-41 0 -121 -15z" />
<glyph unicode="F" horiz-adv-x="1515" d="M35 1206l10 269h490q73 0 297.5 5t413.5 10l188 5l45 -563l-242 -31q-7 46 -19 84.5t-30 69t-37 54.5t-48.5 42t-56.5 31t-67.5 21.5t-76 13.5t-87 7.5t-95 3.5t-106.5 1v-461q61 0 112.5 19t91.5 56t68.5 74.5t59.5 90.5l98 -62v-561l-98 -41q-33 56 -60.5 94.5 t-69 80.5t-92.5 63.5t-110 21.5v-358q40 0 119 12l49 8l-10 -268q-280 6 -362 6l-363 -6l-10 268l49 -8q80 -12 119 -12v983q-41 0 -121 -15z" />
<glyph unicode="G" horiz-adv-x="1638" d="M41 737q0 369 189 563.5t548 194.5q191 0 342 -100q8 62 8 71l2 50l263 -5v-507h-365h-2l2 4q-21 111 -94.5 176t-196.5 65q-139 0 -212.5 -131.5t-73.5 -380.5t94 -380.5t274 -131.5q71 0 134.5 35t104.5 86.5t65 107.5t24 101v20q-52 -1 -144 -9.5t-159 -16.5l-66 -8 v290q328 -14 410 -14l430 14v-270l-143 6v-567l-246 -27l-41 215q-167 -208 -410 -208q-359 0 -548 194t-189 563z" />
<glyph unicode="H" horiz-adv-x="1802" d="M37 266l49 -8q64 -12 160 -12v983q-96 0 -160 -12l-49 -9l4 269l451 -7l327 7l4 -265l-49 7q-88 10 -119 10v-365q156 -6 246 -6t246 6v365q-31 0 -119 -10l-49 -7l4 265l328 -7l450 7l4 -269l-49 9q-64 12 -160 12v-983q96 0 160 12l49 8l-4 -268l-450 6l-328 -6l-4 264 l49 -6q88 -10 119 -10v364q-156 6 -246 6t-246 -6v-364q31 0 119 10l49 6l-4 -264l-327 6l-451 -6z" />
<glyph unicode="I" horiz-adv-x="901" d="M37 266l49 -8q64 -12 160 -12v983q-96 0 -160 -12l-49 -9l4 269l410 -7l409 7l4 -269l-49 9q-64 12 -160 12v-983q96 0 160 12l49 8l-4 -268l-409 6l-410 -6z" />
<glyph unicode="J" horiz-adv-x="901" d="M18 0l7 246q38 0 72 5.5t70 20t57.5 45.5t21.5 76v836q-96 0 -160 -12l-49 -9l4 269l410 -7l409 7l4 -269l-49 9q-64 12 -160 12v-926q0 -77 -24 -137.5t-63.5 -97.5t-93.5 -61.5t-108.5 -34t-115.5 -9.5q-130 0 -232 37z" />
<glyph unicode="K" horiz-adv-x="1720" d="M37 266l49 -8q64 -12 160 -12v983q-96 0 -160 -12l-49 -9l4 269l410 -7l389 7l-17 -265l-49 7q-88 10 -119 10v-328h164l217 217q74 74 74 92q0 11 -16 11q-18 0 -54 -4l25 260l307 -4l287 4l4 -265q-56 9 -78 9q-59 0 -107.5 -29t-109.5 -90l-342 -342l444 -326 q54 -49 103 -49q14 0 27.5 3t38 11t34.5 11l6 -410q-98 -39 -221 -39q-76 0 -130 12.5t-100.5 46.5t-80.5 73t-86 112l-270 383q-24 36 -45.5 51.5t-49.5 15.5h-41v-409q48 0 119 8l49 6l17 -262l-389 6l-410 -6z" />
<glyph unicode="L" horiz-adv-x="1474" d="M35 1208l10 269l365 -7l364 7l10 -269l-49 9q-64 12 -121 12v-983q74 0 117.5 1t103.5 5.5t95 14t78 25t67.5 41t49.5 60.5t38 83.5t19 109.5l243 -21l-53 -606q-676 41 -840 41h-485l-10 268l49 -8q93 -14 119 -14v983q-57 0 -121 -12z" />
<glyph unicode="M" horiz-adv-x="2129" d="M33 262l49 -6q88 -10 119 -10v983q-31 0 -119 -10l-49 -7l4 265l164 -7l286 7l535 -904l539 902l118 -5l410 7l4 -269l-49 9q-64 12 -160 12v-983q96 0 160 12l49 8l-4 -268l-410 4l-368 -4l-4 264l49 -6q88 -10 119 -10v608l-535 -895h-31l-463 782v-495q19 0 35 3t43 5 l49 4l-4 -260l-245 4l-287 -4z" />
<glyph unicode="N" horiz-adv-x="1679" d="M37 262l49 -6q88 -10 119 -10v839q0 146 -119 181l-49 14l4 199l287 -9l188 7l713 -881v633q-31 0 -119 -10l-49 -7l4 265l287 -7l286 7l4 -265l-49 7q-88 10 -118 10v-1235q-238 6 -246 6h-55l-723 893v-647q30 0 118 10l49 6l-4 -264l-286 4l-287 -4z" />
<glyph unicode="O" d="M41 737q0 369 189 563.5t548 194.5t548.5 -194.5t189.5 -563.5t-189.5 -563t-548.5 -194t-548 194t-189 563zM451 737q0 -249 94 -380.5t274 -131.5q140 0 213.5 131.5t73.5 380.5t-94.5 380.5t-274.5 131.5q-139 0 -212.5 -131.5t-73.5 -380.5z" />
<glyph unicode="P" d="M37 266l49 -8q64 -12 160 -12v987q-82 0 -156 -14l-53 -13l4 269l633 14q4 0 145.5 3t145.5 3q257 0 404 -131t147 -371t-147 -370.5t-404 -130.5q-60 0 -168.5 3.5t-141.5 4.5v-254q96 0 160 12l49 8l-4 -268l-409 6l-410 -6zM655 725q20 0 60 -1t59 -1 q171 0 251.5 64.5t80.5 191.5q0 141 -77.5 202.5t-252.5 61.5q-20 0 -60 -1t-61 -1v-516z" />
<glyph unicode="Q" d="M41 737q0 369 189 563.5t548 194.5t548.5 -194.5t189.5 -563.5t-189.5 -563t-548.5 -194q-96 0 -160 10q11 -54 58 -90.5t106.5 -52t128.5 -15.5q123 0 253.5 48.5t195.5 117.5l113 -139q-84 -107 -236 -193t-309 -86q-147 0 -283 64q-7 3 -28.5 13t-30.5 13.5t-27.5 11 t-30.5 10.5l-30 7.5t-35 6t-35 1.5q-71 0 -133 -20l-80 114l211 242q-190 78 -287.5 253.5t-97.5 440.5zM451 737q0 -249 94 -380.5t274 -131.5q140 0 213.5 131.5t73.5 380.5t-94.5 380.5t-274.5 131.5q-139 0 -212.5 -131.5t-73.5 -380.5z" />
<glyph unicode="R" horiz-adv-x="1617" d="M37 266l49 -8q64 -12 160 -12v987q-82 0 -156 -14l-53 -13l4 269l610 14q4 0 136.5 3t136.5 3q250 0 400.5 -119t150.5 -321q0 -178 -127.5 -291t-341.5 -141q70 -11 132 -40.5t105 -63t81 -66t77 -53.5t76 -21q12 0 27 3t26 7t30.5 11t30.5 10l6 -410q-112 -41 -215 -41 q-36 0 -69.5 8.5t-58.5 18.5t-53 34.5t-43.5 39t-41.5 51.5t-35.5 52t-37 60t-35.5 58q-156 254 -328 284l-25 4v-323q31 0 119 10l49 6l-4 -264l-368 6l-410 -6zM655 786q20 0 60 -1t59 -1q291 0 291 236q0 107 -74.5 165t-218.5 58q-20 0 -59 -1t-58 -1v-455z" />
<glyph unicode="S" horiz-adv-x="1392" d="M41 -27v519h285q8 -79 65 -141t138 -94t167 -32q236 0 236 113q0 48 -29 86.5t-78.5 65.5t-113 50.5t-134 48t-141 51.5t-134 66.5t-113 88t-78.5 121t-29 161.5q0 204 157.5 311t456.5 107q81 0 164 -24t146 -68l2 113l241 -5v-507h-264q0 8 1 24t1 25q0 84 -91.5 140 t-199.5 56q-110 0 -177.5 -30.5t-67.5 -79.5q0 -44 31 -79t83.5 -60t120.5 -48t143.5 -47t150.5 -52.5t143 -71t120.5 -95.5t83.5 -132t31 -175q0 -194 -171 -296.5t-491 -102.5q-95 0 -207 36.5t-184 96.5l-2 -144z" />
<glyph unicode="T" horiz-adv-x="1679" d="M29 909l53 586q471 -20 635 -20h246q73 0 231.5 5t280.5 10l122 5l54 -586l-246 -22q-17 187 -106.5 264.5t-254.5 77.5v-983q57 0 121 12l49 8l-10 -268l-364 6l-365 -6l-10 268l49 -8q64 -12 121 -12v983q-165 0 -254.5 -77.5t-106.5 -264.5z" />
<glyph unicode="U" horiz-adv-x="1617" d="M27 1212l4 265l368 -7l369 7l4 -265l-49 7q-88 10 -119 10v-658q0 -127 72 -195.5t194 -68.5q151 0 229.5 71t78.5 195v656q-31 0 -119 -10l-49 -7l4 265l286 -4l287 4l4 -265l-49 7q-88 10 -119 10v-737q0 -232 -161 -372t-433 -140q-309 0 -471.5 137.5t-162.5 374.5 v737q-31 0 -119 -10z" />
<glyph unicode="V" horiz-adv-x="1615" d="M20 1212l5 265l307 -4l145 4l404 -838l305 590q-11 0 -117 -8l-49 -4l4 260l301 -4l266 4l4 -260q-73 10 -96 10q-17 0 -27 -3t-20.5 -15.5t-16 -22t-20.5 -39.5l-561 -1161q-43 14 -143 14l-535 1147q-21 44 -36.5 59t-43.5 15q-13 0 -76 -9z" />
<glyph unicode="W" horiz-adv-x="2457" d="M20 1212l5 265l307 -4l125 4l370 -828l248 547l-14 33q-42 0 -78 -4l-47 -4l4 256l311 -7l338 7l4 -260l-82 6l258 -574l263 580q-26 0 -62 -4l-43 -4l4 256l256 -4l246 4l4 -263q-74 11 -88 11q-30 0 -45 -13.5t-33 -52.5l-528 -1175q-16 7 -49.5 11t-59.5 5h-26 l-400 893l-407 -909q-16 7 -49.5 11t-59.5 5h-26l-512 1149q-19 43 -32.5 57.5t-35.5 14.5q-12 0 -39 -5z" />
<glyph unicode="X" horiz-adv-x="1597" d="M41 262q67 -10 88 -10q30 0 50 15.5t52 60.5l304 417l-330 408q-33 41 -48.5 53.5t-33.5 12.5q-12 0 -35 -3.5t-27 -3.5l5 265l356 -7l354 7l4 -265l-49 7q-30 3 -57 6l221 -273l197 275q-15 -4 -48 -6l-49 -4l4 260l246 -7l287 7l4 -265q-69 11 -90 11q-33 0 -55 -14.5 t-50 -53.5l-286 -403l338 -420q38 -47 56.5 -62.5t39.5 -15.5q11 0 67 8l-4 -264l-360 6l-361 -6l-4 264l50 -6q23 -2 55 -6l-236 295l-217 -297q21 4 53 6l50 4l-4 -260l-246 6l-287 -6z" />
<glyph unicode="Y" horiz-adv-x="1597" d="M20 1212l5 265l358 -7l358 7l4 -265l-49 7q-15 2 -48.5 5t-37.5 3l275 -434l278 432q-4 -1 -37 -2t-41 -2l-49 -4l4 260l246 -7l287 7l4 -260q-30 6 -74 6q-31 0 -47 -12.5t-41 -51.5l-285 -440q-47 -73 -67.5 -109t-36.5 -89.5t-19 -108t-3 -156.5v-10q95 0 159 12l49 8 l-4 -268l-409 6l-410 -6l-4 268l49 -8q64 -12 160 -12v129q-1 68 -15.5 114t-48.5 99l-358 567q-25 39 -42 52.5t-42 13.5q-13 0 -36 -4t-32 -5z" />
<glyph unicode="Z" horiz-adv-x="1495" d="M33 305l858 924h-96q-98 0 -149 -2t-113 -10t-91 -25.5t-59.5 -49t-44.5 -78.5t-21 -116l-243 23l49 524q587 -20 751 -20h222l313 14l-23 -334l-817 -909h21q89 0 137.5 1t122.5 7.5t115.5 19.5t93 37.5t80 60.5t51 90.5t29.5 125.5l243 -23l-53 -585q-737 20 -901 20 h-123l-348 -14z" />
<glyph unicode="[" horiz-adv-x="737" d="M82 -492v2048h614v-245h-41l-163 6v-1569l163 6h41v-246h-614z" />
<glyph unicode="\" horiz-adv-x="1474" d="M51 1563l207 133l1165 -1821l-206 -133z" />
<glyph unicode="]" horiz-adv-x="737" d="M41 -246h41l164 -4v1565l-164 -4h-41v245h614v-2048h-614v246z" />
<glyph unicode="^" horiz-adv-x="1228" d="M25 1116l505 510q45 45 91 45q56 0 90 -45l491 -518l-262 -217l-322 483l-342 -489z" />
<glyph unicode="_" horiz-adv-x="1617" d="M82 -266h1393v-226h-1393v226z" />
<glyph unicode="`" horiz-adv-x="593" d="M41 1452l147 219l365 -305l-115 -137z" />
<glyph unicode="a" horiz-adv-x="1515" d="M41 614q0 305 114.5 462t333.5 157l412 -86l82 82l328 6v-989q40 0 114 14l54 12l-4 -276l-410 6l-82 141l-494 -153q-218 0 -333 160t-115 464zM440 614q0 -372 215 -372l246 41v637l-246 41q-109 0 -162 -79.5t-53 -267.5z" />
<glyph unicode="b" d="M37 1292l4 269l369 -7l266 7q0 -24 -10.5 -114t-10.5 -134v-82l287 8q258 0 416 -172t158 -453t-158 -452.5t-416 -171.5l-706 10l10 338v975q-91 0 -160 -13zM655 244l103 -2q169 0 258.5 99t89.5 288q0 184 -89.5 281.5t-258.5 97.5l-103 -2v-762z" />
<glyph unicode="c" horiz-adv-x="1351" d="M41 614q0 310 173.5 472.5t502.5 162.5q183 0 309 -108q0 49 2 76l2 32l260 4v-495h-284q-18 125 -85 185.5t-204 60.5q-129 0 -197.5 -100t-68.5 -290t83.5 -289.5t243.5 -99.5q206 0 344 191l213 -125q-99 -141 -251 -226t-347 -85q-340 0 -518 162t-178 472z" />
<glyph unicode="d" horiz-adv-x="1515" d="M41 614q0 305 114.5 462t333.5 157l412 -86v188q-50 0 -160 4l-55 2l10 222l410 -7l225 7q0 -45 -10 -127.5t-10 -120.5v-1069q40 0 114 14l54 12l-4 -276l-410 6l-82 141l-494 -153q-217 0 -332.5 160t-115.5 464zM440 614q0 -372 215 -372l246 41v637l-246 41 q-109 0 -162 -79.5t-53 -267.5z" />
<glyph unicode="e" horiz-adv-x="1372" d="M41 614q0 310 173.5 472.5t502.5 162.5q178 0 314.5 -61t215 -183.5t78.5 -291.5q0 -78 -16 -160l-856 20q9 -169 92 -258.5t233 -89.5q206 0 344 191l213 -125q-99 -141 -251 -226t-347 -85q-340 0 -518 162t-178 472zM467 778h463q2 16 2 45q0 63 -17 104.5t-49 61.5 t-66.5 27.5t-82.5 7.5q-97 0 -161 -64t-89 -182z" />
<glyph unicode="f" horiz-adv-x="942" d="M37 1118l49 -4q106 -8 160 -8q-8 94 -8 145q0 72 25.5 128.5t66.5 91t98 57t114.5 31t121.5 8.5q132 0 280 -37l-6 -236q-52 6 -102 6q-89 0 -138 -30t-49 -107q0 -27 6 -57q54 0 160 8l49 4l-4 -260l-205 2v-614q61 0 140 12l49 8l-10 -268q-301 6 -383 6l-383 -6 l-11 268l49 -8q80 -12 140 -12v614l-205 -2z" />
<glyph unicode="g" horiz-adv-x="1392" d="M16 -246l101 314q-58 51 -58 110q0 136 144 348q-162 105 -162 303q0 201 157.5 310.5t426.5 109.5q229 0 374 -86q34 47 88 73t119 26q16 0 68 -9l98 -18l-14 -213l-72 20q-47 13 -72 13q-32 0 -50.5 -14t-18.5 -27q43 -84 43 -185q0 -198 -150 -298.5t-413 -100.5 q-150 0 -271 31q-24 -49 -24 -90q0 -54 40.5 -82.5t116.5 -28.5q93 0 285 40t264 40q357 0 357 -403q0 -116 -52 -201t-146.5 -133.5t-213.5 -71.5t-266 -23q-172 0 -333.5 33.5t-263.5 90.5t-102 122zM260 8l2 -69q1 -72 92 -132t226.5 -92t277.5 -32q98 0 184 43t86 98 q0 82 -120.5 128t-321.5 46q-90 0 -211 4t-176 4q-23 0 -39 2zM389 829q0 -104 60.5 -159.5t175.5 -55.5q104 0 159.5 55.5t55.5 159.5q0 95 -55.5 145t-159.5 50q-115 0 -175.5 -50t-60.5 -145z" />
<glyph unicode="h" horiz-adv-x="1802" d="M37 266l49 -8q64 -12 160 -12v1065q-91 0 -160 -13l-49 -8l4 269l369 -7l266 7q0 -24 -10.5 -114t-10.5 -134v-228l451 166q247 0 348.5 -113t101.5 -388v-502q96 0 160 12l49 8l-4 -268l-409 6l-369 -6l-4 264l49 -6q88 -10 119 -10v364q0 209 -50 288t-175 79l-267 -78 v-653q31 0 119 10l49 6l-4 -264l-368 6l-410 -6z" />
<glyph unicode="i" horiz-adv-x="901" d="M37 266l49 -8q64 -12 160 -12v737q-96 0 -160 -12l-49 -8l4 268l369 -6l266 6q0 -24 -10.5 -114t-10.5 -134v-737q96 0 160 12l49 8l-4 -268l-409 6l-410 -6zM276 1536q0 78 53.5 126t121.5 48q78 0 126 -53t48 -121q0 -78 -53 -126t-121 -48q-78 0 -126.5 53.5 t-48.5 120.5z" />
<glyph unicode="j" horiz-adv-x="778" d="M18 -455l7 246q29 0 56 3t58.5 12.5t54 25t37.5 43.5t15 64v1044q-96 0 -160 -12l-49 -8l4 268l410 -6l225 6q0 -42 -10.5 -124.5t-10.5 -123.5v-1135q0 -77 -24 -137.5t-63.5 -97.5t-93.5 -61.5t-108.5 -34t-115.5 -9.5q-130 0 -232 37zM276 1536q0 78 53.5 126 t121.5 48q78 0 126 -53t48 -121q0 -78 -53 -126t-121 -48q-78 0 -126.5 53.5t-48.5 120.5z" />
<glyph unicode="k" horiz-adv-x="1597" d="M37 266l49 -8q64 -12 160 -12v1065q-91 0 -160 -13l-49 -8l4 269l410 -7l225 7q0 -42 -10.5 -124.5t-10.5 -123.5v-574h103l246 246q-66 0 -127 -6l4 254l348 -4l287 4l4 -264l-50 6q-25 4 -63 4q-40 0 -66 -15.5t-71 -60.5l-266 -266l364 -283q60 -47 107 -47 q21 0 96 23l6 -328q-106 -41 -225 -41q-77 0 -132 13t-99 47t-75.5 73t-76.5 109l-146 229q-39 62 -90 62h-78v-246q27 0 109 6l49 4l12 -258l-374 6l-410 -6z" />
<glyph unicode="l" horiz-adv-x="901" d="M37 266l49 -8q64 -12 160 -12v1065q-91 0 -160 -13l-49 -8l4 269l369 -7l266 7q0 -24 -10.5 -114t-10.5 -134v-1065q96 0 160 12l49 8l-4 -268l-409 6l-410 -6z" />
<glyph unicode="m" horiz-adv-x="2457" d="M37 266l49 -8q64 -12 160 -12v737q-96 0 -160 -12l-49 -8l4 266l451 20l102 -166l450 166q147 0 232.5 -38t126.5 -124l440 162q125 0 203.5 -25.5t125 -88t64 -153t17.5 -234.5v-502q55 0 119 12l49 8l-4 -268l-369 6l-328 -6l-4 258l49 -4q18 -1 30 -2.5l16 -2t11.5 -1 t20.5 -0.5v364q0 93 -3.5 150t-14 107.5t-31 76t-53.5 39.5t-82 14l-213 -71q8 -68 8 -178v-502h14.5h6t3 1.5t10 2.5t23.5 2l50 4l-5 -258l-307 6l-307 -6l-4 254l49 -2q29 -1 34.5 -2.5t22.5 -1.5v364q0 93 -3.5 150t-14 107.5t-31 76t-53.5 39.5t-82 14l-205 -69v-682 q31 0 119 10l49 6l-4 -264l-368 6l-410 -6z" />
<glyph unicode="n" horiz-adv-x="1802" d="M37 266l49 -8q64 -12 160 -12v737q-96 0 -160 -12l-49 -8l4 266l451 20l100 -164l514 164q247 0 348.5 -113t101.5 -388v-502q96 0 160 12l49 8l-4 -268l-409 6l-369 -6l-4 264l49 -6q88 -10 119 -10v364q0 212 -51 299.5t-174 87.5l-267 -77v-674q31 0 119 10l49 6 l-4 -264l-368 6l-410 -6z" />
<glyph unicode="o" horiz-adv-x="1392" d="M41 614q0 310 167.5 472.5t487.5 162.5t488 -162.5t168 -472.5t-168 -472t-488 -162t-487.5 162t-167.5 472zM451 614q0 -190 73 -289.5t213 -99.5q100 0 152.5 99.5t52.5 289.5t-73.5 290t-213.5 100q-100 0 -152 -99.5t-52 -290.5z" />
<glyph unicode="p" horiz-adv-x="1515" d="M0 -225l49 -8q69 -13 156 -13v1227q-41 0 -115 -14l-53 -13l4 275l410 20l81 -119l494 109q218 0 333.5 -160.5t115.5 -464.5q0 -280 -157.5 -447t-416.5 -167l-287 8v-254q91 0 160 13l49 8l-4 -269l-409 7l-406 -7zM614 233l62 -2q175 0 287 102t112 281 q0 373 -215 373l-246 -43v-711z" />
<glyph unicode="q" horiz-adv-x="1515" d="M41 625q0 281 157.5 452.5t415.5 171.5l861 -20l4 -268l-54 12q-74 14 -155 14v-86v-1147q91 0 160 13l49 8l-4 -269l-410 7l-225 -7q0 42 10 124.5t10 123.5v254l-246 -8q-258 0 -415.5 172t-157.5 453zM451 610q0 -184 89.5 -281.5t258.5 -97.5l61 2v762l-61 2 q-169 0 -258.5 -99t-89.5 -288z" />
<glyph unicode="r" horiz-adv-x="1417" d="M37 266l49 -8q64 -12 160 -12v737q-96 0 -160 -12l-49 -8l4 268l369 -2q120 0 182.5 -63.5t62.5 -182.5v-125l203 268q114 146 234 146q147 0 278 -25v-561h-233q-17 106 -58.5 151.5t-91.5 45.5q-55 0 -90 -35l-242 -236v-366q31 0 119 10l49 6l-4 -264l-368 6l-410 -6z " />
<glyph unicode="s" horiz-adv-x="1310" d="M41 -25v476h264q8 -79 60 -136t127 -83.5t163 -26.5q110 0 168 24t58 68q0 33 -27.5 58.5t-73.5 44t-106 35.5t-126.5 36t-132.5 42t-126 57t-106 76.5t-73.5 106t-27.5 140.5q0 173 146.5 264.5t426.5 91.5q159 0 289 -92l4 92l219 4v-434h-241q0 80 -88 142.5 t-193 62.5q-205 0 -205 -90q0 -34 28.5 -61t76.5 -46t110 -36.5t131 -36t138 -41t131 -56t110 -75.5t76.5 -104.5t28.5 -139.5q0 -175 -158 -266.5t-457 -91.5q-93 0 -195 35.5t-175 97.5l-6 -133z" />
<glyph unicode="t" horiz-adv-x="942" d="M16 971l4 260l248 -4l60 248h321l4 -248l248 4l4 -260l-49 4q-106 8 -201 8v-573q0 -36 15 -64t38 -43.5t54 -25t58.5 -12.5t56.5 -3l6 -246q-99 -36 -232 -36q-61 0 -115.5 9.5t-108.5 33.5t-93.5 61.5t-63.5 97.5t-24 137v664q-74 0 -180 -8z" />
<glyph unicode="u" horiz-adv-x="1732" d="M16 965l4 268l410 -6l225 6q0 -44 -10 -126.5t-10 -121.5v-364q0 -212 51 -300t174 -88l225 84v668q-30 0 -118 -10l-49 -6l4 264l368 -6l226 6q0 -44 -10.5 -126.5t-10.5 -121.5v-737q96 0 160 12l49 8l-4 -266l-451 -20l-112 182l-461 -182q-248 0 -349.5 113 t-101.5 388v502q-95 0 -159 -12z" />
<glyph unicode="v" horiz-adv-x="1454" d="M25 967l4 264l299 -4l145 4l328 -715l221 467q-13 0 -119 -8l-49 -4l4 260l301 -4l266 4l5 -260q-75 6 -84 6q-32 0 -50 -15t-41 -61l-442 -915q-43 14 -221 14l-420 901q-21 45 -34.5 59.5t-37.5 14.5q-14 0 -40.5 -3.5t-34.5 -4.5z" />
<glyph unicode="w" horiz-adv-x="2113" d="M25 967l4 264l307 -4l125 4l287 -684l165 403l-14 33q-28 0 -82 -4l-43 -4l4 256l328 -4l301 4l4 -256l-61 2l166 -410l167 416q-5 0 -104 -6l4 254l256 -4l246 4l4 -262q-68 10 -90 10q-30 0 -45.5 -15.5t-36.5 -62.5l-410 -917q-16 7 -59 11t-78 5h-35l-288 647 l-299 -663q-16 7 -63 11t-87 5h-39l-399 903q-19 44 -31 58t-33 14q-13 0 -38.5 -3.5t-32.5 -4.5z" />
<glyph unicode="x" horiz-adv-x="1515" d="M41 262q54 -8 86 -8q29 0 48 14t54 58l256 323l-274 269q-34 34 -50.5 44.5t-35.5 10.5q-4 0 -64 -6l5 264l356 -6l354 6l4 -260q-88 10 -118 10l184 -219l160 219q-18 0 -93 -6l5 256l245 -6l287 6l4 -264q-67 10 -88 10q-29 0 -49.5 -15t-54.5 -57l-242 -299l291 -291 q37 -37 55.5 -49t38.5 -12q13 0 38 3.5t32 4.5l-5 -264l-360 6l-360 -6l-5 264l50 -6q58 -8 69 -8l-207 244l-176 -244q5 0 25 2.5t35 3.5l41 4l-4 -260l-246 6l-287 -6z" />
<glyph unicode="y" d="M18 -455l7 244h122q212 0 336.5 61.5t124.5 184.5q0 79 -57 184l-379 678q-28 49 -42 63.5t-38 14.5q-14 0 -39.5 -3.5t-32.5 -4.5l5 264l358 -6l358 6l4 -264l-49 6q-50 8 -86 8l289 -545l248 543q-46 0 -78 -4l-49 -4l4 260l221 -6l287 6l4 -256q-75 6 -76 6 q-26 0 -38.5 -12.5t-32.5 -53.5l-238 -524q-45 -98 -82 -174.5t-80.5 -157t-83 -141t-86 -120.5t-93 -102.5t-101 -79.5t-113 -60t-125.5 -35.5t-141 -12.5q-55 0 -127 11.5t-101 25.5z" />
<glyph unicode="z" horiz-adv-x="1413" d="M33 305l796 678h-55q-58 0 -92.5 -0.5t-78.5 -2t-68.5 -5t-56 -10t-48 -15.5t-36.5 -22t-30.5 -30.5t-21 -40.5t-16.5 -51t-9 -63l-243 23l49 483q567 -20 731 -20h139l314 14l-23 -334l-725 -643l31 -4q85 -10 153 -10q363 0 392 295l243 -23l-51 -544q-717 20 -881 20 h-61l-348 -14z" />
<glyph unicode="{" horiz-adv-x="778" d="M41 451v163q19 0 38.5 3t47 14.5t48 30.5t35.5 54.5t15 82.5q-2 31 -6.5 90t-7 96t-4.5 88.5t-2 95.5q0 173 149 280t383 107v-245q-62 0 -92.5 -26.5t-30.5 -110.5q0 -54 3 -110.5t9.5 -135t8.5 -109.5q0 -117 -85.5 -198.5t-205.5 -81.5h-12v-13h12q120 0 205.5 -81.5 t85.5 -198.5q-2 -31 -8.5 -109.5t-9.5 -135t-3 -110.5q0 -84 30.5 -110.5t92.5 -26.5v-246q-234 0 -383 107.5t-149 280.5q0 44 2 95.5t4.5 88.5t7 96t6.5 90q0 47 -15 82.5t-35.5 54.5t-48 30.5t-47 14.5t-38.5 3z" />
<glyph unicode="|" horiz-adv-x="573" d="M82 -492v2048h410v-2048h-410z" />
<glyph unicode="}" horiz-adv-x="778" d="M41 -246q62 0 92.5 26.5t30.5 110.5q0 54 -3 110t-9.5 137t-8.5 108q0 117 85.5 198.5t205.5 81.5h12v13h-12q-120 0 -205.5 81.5t-85.5 198.5q2 27 8.5 108t9.5 137t3 110q0 84 -30.5 110.5t-92.5 26.5v245q234 0 383 -107t149 -280q0 -44 -2 -95.5t-4.5 -88.5t-7 -96 t-6.5 -90q0 -47 15 -82.5t35.5 -54.5t48 -30.5t47 -14.5t38.5 -3v-163q-19 0 -38.5 -3t-47 -14.5t-48 -30.5t-35.5 -54.5t-15 -82.5q2 -31 6.5 -90t7 -96t4.5 -88.5t2 -95.5q0 -173 -149 -280.5t-383 -107.5v246z" />
<glyph unicode="~" horiz-adv-x="942" d="M37 647l16 109q19 102 66 158.5t135 56.5q47 0 164.5 -51.5t163.5 -51.5q68 0 84 80l241 -43l-16 -100q-19 -102 -66 -158.5t-135 -56.5q-47 0 -164.5 51t-163.5 51q-67 0 -83 -80z" />
<glyph unicode="&#xa1;" horiz-adv-x="409" d="M-41 -451l72 1024h266l72 -1024h-410zM0 942q0 73 50 118.5t114 45.5q73 0 118.5 -50t45.5 -114q0 -73 -50 -118.5t-114 -45.5q-73 0 -118.5 50t-45.5 114z" />
<glyph unicode="&#xa2;" horiz-adv-x="1351" d="M41 737q0 290 152.5 451.5t441.5 181.5v146h164v-150q135 -22 227 -102q0 48 2 75l2 33l260 4v-495h-284q-14 104 -63 163t-144 76v-772q190 10 323 191l213 -125q-91 -130 -226.5 -213.5t-309.5 -96.5v-145h-164v147q-290 23 -442 184t-152 447zM451 737 q0 -287 184 -362v739q-90 -28 -137 -124t-47 -253z" />
<glyph unicode="&#xa3;" horiz-adv-x="1617" d="M37 246h250l18 375l-223 -17l16 266q96 -8 217 -16l13 238q0 197 136.5 300t395.5 103q97 0 207.5 -29t169.5 -80l2 130l221 -5v-507h-243q-18 128 -78.5 186.5t-196.5 58.5q-100 0 -152.5 -42t-52.5 -122l-12 -237l356 22l-16 -266q-200 17 -350 25l-19 -383 q87 0 138.5 1.5t126 8t119.5 19.5t98 38t83.5 60.5t54.5 89.5t30 123l243 -21l-53 -606q-668 41 -885 41h-119l-485 -20z" />
<glyph unicode="&#xa4;" horiz-adv-x="1024" d="M43 1042l186 160l125 -123q74 33 158 33q93 0 166 -39l133 135l166 -182l-127 -127q37 -75 37 -162q0 -85 -33 -157l127 -129l-184 -162l-115 114q-78 -41 -170 -41q-79 0 -162 37l-129 -127l-162 185l117 114q-39 79 -39 166q0 90 41 170zM342 737q0 -74 51.5 -122 t118.5 -48q74 0 122 51.5t48 118.5q0 74 -51.5 122t-118.5 48q-74 0 -122 -51.5t-48 -118.5z" />
<glyph unicode="&#xa5;" horiz-adv-x="1597" d="M20 1212l5 265l358 -7l358 7l4 -265l-49 7q-15 2 -48.5 5t-37.5 3l275 -434l278 432q-4 -1 -37 -2t-41 -2l-49 -4l4 260l246 -7l287 7l4 -260q-20 1 -63.5 6.5t-53.5 5.5l-330 -510l-10 -17l211 5v-267q-169 4 -319 6q-8 -65 -8 -200q95 0 159 12l49 8l-4 -268l-409 6 l-410 -6l-4 268l49 -8q64 -12 160 -12v129q0 41 -6 71l-322 -6v267l193 -5l-332 523q-27 -3 -57 -6z" />
<glyph unicode="&#xa6;" horiz-adv-x="573" d="M82 328h410v-820h-410v820zM82 737v819h410v-819h-410z" />
<glyph unicode="&#xa7;" horiz-adv-x="1679" d="M41 573q0 256 324 334q-119 98 -119 252q0 204 157.5 311t456.5 107q144 0 268 -68l2 88l263 -4v-508h-285q1 24 4 71.5t4 70.5q-39 48 -110.5 76t-145.5 28q-110 0 -178 -30.5t-68 -79.5q0 -54 35 -97t94.5 -73t136 -55.5t161.5 -49t170 -49.5t161.5 -62.5t136 -81.5 t94.5 -111.5t35 -149.5q0 -257 -323 -334q119 -101 119 -252q0 -204 -158 -311t-457 -107q-81 0 -163.5 24t-145.5 68l-2 -112l-262 4v508h284q0 -8 -1 -24.5t-1 -25.5q0 -84 91.5 -140t199.5 -56q110 0 178 30.5t68 79.5q0 54 -35 97t-94.5 73t-136 55.5t-161.5 49 t-170 49.5t-161.5 62.5t-136 81.5t-94.5 111.5t-35 149.5zM451 573q0 -34 24 -63t60 -49t96 -41t113 -35.5t131.5 -36.5t132.5 -39q108 12 164.5 71.5t56.5 111.5q0 34 -24 63t-60 49t-96 41t-113 35.5t-131.5 36.5t-132.5 39q-108 -12 -164.5 -71.5t-56.5 -111.5z" />
<glyph unicode="&#xa8;" horiz-adv-x="860" d="M31 1434q0 69 47 111t106 42q69 0 111.5 -47t42.5 -106q0 -69 -47.5 -111.5t-106.5 -42.5q-69 0 -111 47.5t-42 106.5zM522 1434q0 69 47.5 111t106.5 42q69 0 111 -47t42 -106q0 -69 -47 -111.5t-106 -42.5q-69 0 -111.5 47.5t-42.5 106.5z" />
<glyph unicode="&#xa9;" horiz-adv-x="1843" d="M72 782q0 211 114 390.5t309.5 284t426.5 104.5t426.5 -104.5t309.5 -284t114 -390.5q0 -210 -114 -388.5t-309.5 -282t-426.5 -103.5t-426.5 103.5t-309.5 282t-114 388.5zM195 782q0 -177 97.5 -327t265 -237t364.5 -87t364.5 87t265 237t97.5 327q0 178 -97.5 329 t-265 239t-364.5 88t-364.5 -88t-265 -239t-97.5 -329zM463 782q0 221 115.5 340t330.5 119q112 0 209 -63q0 31 2 47l2 22l146 -2v-303h-160v4q-14 70 -60.5 104.5t-138.5 34.5q-192 0 -192 -303t241 -303q138 0 226 150l131 -78q-58 -99 -155.5 -163t-225.5 -64 q-227 0 -349 118.5t-122 339.5z" />
<glyph unicode="&#xaa;" horiz-adv-x="1064" d="M51 1268q0 202 79.5 306.5t225.5 104.5h2l258 -55l54 53l235 4v-643q6 0 62 9l47 12l-2 -203l-291 4l-51 90l-312 -98h-2q-149 0 -227 108.5t-78 307.5zM340 1268q0 -125 31.5 -178.5t93.5 -53.5l145 25v397l-145 25q-66 0 -95.5 -48t-29.5 -167z" />
<glyph unicode="&#xab;" horiz-adv-x="1105" d="M33 567v99l340 409l176 -201l-305 -256v-8l305 -276l-191 -191zM532 567v99l340 409l177 -201l-306 -256v-8l306 -276l-191 -191z" />
<glyph unicode="&#xac;" horiz-adv-x="1146" d="M82 410v245h983v-655h-246v410h-737z" />
<glyph unicode="&#xad;" horiz-adv-x="737" d="M41 604v266q328 -10 410 -10l409 10v-266q-327 10 -409 10z" />
<glyph unicode="&#xae;" horiz-adv-x="1843" d="M72 782q0 213 112 385q114 180 308 285q198 109 430 109q230 0 430 -109q194 -105 307 -285q113 -171 113 -385q0 -211 -113 -385q-113 -179 -307 -284q-190 -105 -430 -105q-232 0 -430 105q-197 106 -308 284q-112 169 -112 385zM195 782q0 -177 92 -319 q99 -157 262 -244q163 -88 373 -88t372 88q165 89 262 244q93 141 93 319q0 176 -93 320q-95 152 -262 244q-170 92 -372 92q-204 0 -373 -92q-165 -89 -262 -244q-92 -139 -92 -320zM481 516l31 -4q44 -8 92 -8v583q-25 0 -69 -8l-33 -8l4 166l495 14q157 0 253 -71.5 t96 -194.5q0 -105 -78.5 -170.5t-208.5 -83.5v-4q134 -18 225 -119q24 -28 58 -28q9 0 19 2.5t26.5 8t23.5 7.5l2 -225q-9 -3 -30 -11t-33.5 -12t-30.5 -8t-33 -4q-121 0 -166 74q-153 261 -256 276l-10 2v-186q16 0 66 6l30 4l-2 -166l-221 8l-246 -6zM858 827h66 q87 0 129.5 33t42.5 105q0 129 -172 129h-66v-267z" />
<glyph unicode="&#xaf;" horiz-adv-x="819" d="M41 1300v267q287 -11 369 -11l368 11v-267q-286 11 -368 11z" />
<glyph unicode="&#xb0;" horiz-adv-x="655" d="M41 1290q0 120 88.5 203.5t198.5 83.5q115 0 200.5 -85.5t85.5 -201.5q0 -120 -88 -203t-198 -83q-116 0 -201.5 85.5t-85.5 200.5zM205 1290q0 -48 39.5 -85.5t83.5 -37.5t83.5 37.5t39.5 85.5t-39.5 85.5t-83.5 37.5t-83.5 -37.5t-39.5 -85.5z" />
<glyph unicode="&#xb1;" horiz-adv-x="1064" d="M41 -10v266q409 -10 491 -10l492 10v-266q-410 10 -492 10zM41 768v266q217 -6 367 -8l-9 367h267q-7 -217 -9 -367l367 8v-266q-217 6 -367 8l9 -366h-267q7 216 9 366z" />
<glyph unicode="&#xb2;" horiz-adv-x="860" d="M45 856l369 313q114 92 114 156q0 46 -40 72t-107 26q-81 0 -117 -35.5t-47 -111.5h-172v305l158 2l2 -33v-45q36 30 102 48t123 18q179 0 261.5 -66.5t82.5 -175.5q0 -61 -46.5 -127t-129.5 -125l-354 -256h123h55.5t49 1.5t44.5 4t37 6.5t33 11t26 16.5t22.5 23 t16 30.5t13 38.5t6.5 48.5l145 -12l-31 -327q-369 12 -467 12h-61l-209 -8z" />
<glyph unicode="&#xb3;" horiz-adv-x="860" d="M14 846l127 76q33 -46 98.5 -80.5t143.5 -34.5q95 0 145 31.5t50 91.5q0 66 -53.5 106.5t-139.5 40.5h-82v148h45q82 0 131 30t49 80q0 86 -131 86q-163 0 -184 -147h-156v297l146 -2v-21q-2 -16 -2 -45q78 66 196 66q179 0 266 -57t87 -177q0 -61 -44.5 -107.5 t-127.5 -72.5q114 -26 179.5 -86t65.5 -139q0 -132 -105 -201.5t-304 -69.5q-131 0 -236.5 51t-163.5 136z" />
<glyph unicode="&#xb4;" horiz-adv-x="593" d="M41 1366l344 305l168 -198l-397 -244z" />
<glyph unicode="&#xb5;" horiz-adv-x="1761" d="M37 965l4 268l410 -6l225 6q0 -44 -10.5 -126.5t-10.5 -121.5v-364q0 -212 51.5 -300t174.5 -88l225 84v668q-31 0 -119 -10l-49 -6l4 264l369 -6l225 6q0 -44 -10 -126.5t-10 -121.5v-737q95 0 159 12l49 8l-4 -266l-450 -20l-113 182l-461 -182q-197 0 -301 71l35 -241 q7 -51 45.5 -125t38.5 -125q0 -25 -85.5 -39.5t-182.5 -14.5v1477q-96 0 -160 -12z" />
<glyph unicode="&#xb6;" horiz-adv-x="1761" d="M41 1065q0 169 120.5 289.5t289.5 120.5h1269v-254l-41 4q-36 4 -163 4v-1413q108 0 163 6l41 4v-236h-614v1639q-10 0 -43 2t-80 2q-48 0 -83.5 -2t-39.5 -2v-1639h-614v236l41 -4q87 -6 164 -6v839q-169 0 -289.5 120.5t-120.5 289.5z" />
<glyph unicode="&#xb7;" horiz-adv-x="409" d="M41 737q0 73 50 118.5t114 45.5q73 0 118.5 -50t45.5 -114q0 -73 -50 -118.5t-114 -45.5q-73 0 -118.5 50t-45.5 114z" />
<glyph unicode="&#xb8;" horiz-adv-x="921" d="M135 -365l53 62q15 -20 48 -29.5t61 -9.5q49 0 77.5 29t28.5 65q0 33 -31.5 55.5t-82.5 22.5q-24 0 -51 -6l51 205l108 -17l-24 -108q4 0 13.5 1t14.5 1q31 0 60.5 -5t59 -18.5t51.5 -33.5t35.5 -52t13.5 -73q0 -104 -57.5 -160t-166.5 -56q-74 0 -145 36t-117 91z" />
<glyph unicode="&#xb9;" horiz-adv-x="614" d="M43 1198l2 205l234 156l184 4q0 -15 -6 -69t-6 -81v-590q52 0 96 8l28 5l-2 -162l-245 4l-258 -4l-2 162l28 -5q44 -8 109 -8v510q-11 -8 -49.5 -40t-46.5 -38z" />
<glyph unicode="&#xba;" horiz-adv-x="962" d="M41 1255q0 207 114.5 315.5t325.5 108.5q213 0 327 -110.5t114 -313.5q0 -207 -115 -315.5t-326 -108.5q-213 0 -326.5 110.5t-113.5 313.5zM336 1255q0 -243 172 -243q119 0 119 243q0 244 -172 244q-119 0 -119 -244z" />
<glyph unicode="&#xbb;" horiz-adv-x="1105" d="M57 354l305 256v8l-305 277l191 190l325 -423v-99l-340 -409zM557 354l305 256v8l-305 277l191 190l325 -423v-99l-340 -409z" />
<glyph unicode="&#xbf;" horiz-adv-x="983" d="M-287 -27q0 109 76 224t217 196l191 109l2 133l342 14l4 -209l-232 -202q-98 -87 -131 -126q-59 -71 -59 -132q0 -78 67 -121t179 -43q135 0 195.5 58.5t78.5 186.5h285v-507l-262 -5l-2 54v75q-59 -50 -169.5 -79t-207.5 -29q-124 0 -222 21t-163.5 57t-108.5 87.5 t-61.5 110.5t-18.5 127zM205 942q0 73 50 118.5t114 45.5q73 0 118 -50t45 -114q0 -73 -49.5 -118.5t-113.5 -45.5q-73 0 -118.5 50t-45.5 114z" />
<glyph unicode="&#xc0;" horiz-adv-x="1679" d="M20 262q61 -12 89 -12q26 0 39 11.5t24 39.5l68 160l-117 -2v291q102 -9 233 -21l152 352q92 216 92 435l424 -41l330 -787h205v-229l-111 2l65 -158q13 -31 23.5 -41t32.5 -10q23 0 90 10l-4 -264l-461 4l-266 -4l-4 264l49 -6q92 -10 121 -10l-95 225q-55 2 -118 2 q-125 0 -371 -6l-94 -221q2 0 116 8l50 4l-4 -260l-271 4l-282 -4zM551 1780l147 219l365 -305l-115 -138zM614 705q180 -17 267 -17h28l-147 356z" />
<glyph unicode="&#xc1;" horiz-adv-x="1679" d="M20 262q61 -12 89 -12q26 0 39 11.5t24 39.5l68 160l-117 -2v291q102 -9 233 -21l152 352q92 216 92 435l424 -41l330 -787h205v-229l-111 2l65 -158q13 -31 23.5 -41t32.5 -10q23 0 90 10l-4 -264l-461 4l-266 -4l-4 264l49 -6q92 -10 121 -10l-95 225q-55 2 -118 2 q-125 0 -371 -6l-94 -221q2 0 116 8l50 4l-4 -260l-271 4l-282 -4zM551 1694l344 305l168 -199l-397 -244zM614 705q180 -17 267 -17h28l-147 356z" />
<glyph unicode="&#xc2;" horiz-adv-x="1679" d="M20 262q61 -12 89 -12q26 0 39 11.5t24 39.5l68 160l-117 -2v291q102 -9 233 -21l152 352q92 216 92 435l424 -41l330 -787h205v-229l-111 2l65 -158q13 -31 23.5 -41t32.5 -10q23 0 90 10l-4 -264l-461 4l-266 -4l-4 264l49 -6q92 -10 121 -10l-95 225q-55 2 -118 2 q-125 0 -371 -6l-94 -221q2 0 116 8l50 4l-4 -260l-271 4l-282 -4zM397 1690l316 243h184l295 -231l-180 -135l-215 176l-209 -182zM614 705q180 -17 267 -17h28l-147 356z" />
<glyph unicode="&#xc3;" horiz-adv-x="1679" d="M20 262q61 -12 89 -12q26 0 39 11.5t24 39.5l68 160l-117 -2v291q102 -9 233 -21l152 352q92 216 92 435l424 -41l330 -787h205v-229l-111 2l65 -158q13 -31 23.5 -41t32.5 -10q23 0 90 10l-4 -264l-461 4l-266 -4l-4 264l49 -6q92 -10 121 -10l-95 225q-55 2 -118 2 q-125 0 -371 -6l-94 -221q2 0 116 8l50 4l-4 -260l-271 4l-282 -4zM360 1640l15 99q19 102 65.5 158.5t134.5 56.5q47 0 164.5 -51.5t163.5 -51.5q68 0 84 80l242 -43l-17 -100q-18 -100 -64.5 -152.5t-135.5 -52.5q-47 0 -164.5 51.5t-163.5 51.5q-68 0 -84 -80zM614 705 q180 -17 267 -17h28l-147 356z" />
<glyph unicode="&#xc4;" horiz-adv-x="1679" d="M20 262q61 -12 89 -12q26 0 39 11.5t24 39.5l68 160l-117 -2v291q102 -9 233 -21l152 352q92 216 92 435l424 -41l330 -787h205v-229l-111 2l65 -158q13 -31 23.5 -41t32.5 -10q23 0 90 10l-4 -264l-461 4l-266 -4l-4 264l49 -6q92 -10 121 -10l-95 225q-55 2 -118 2 q-125 0 -371 -6l-94 -221q2 0 116 8l50 4l-4 -260l-271 4l-282 -4zM397 1761q0 69 47.5 111.5t106.5 42.5q69 0 111.5 -47.5t42.5 -106.5q0 -69 -47.5 -111t-106.5 -42q-69 0 -111.5 47t-42.5 106zM614 705q180 -17 267 -17h28l-147 356zM889 1761q0 69 47 111.5t106 42.5 q69 0 111.5 -47.5t42.5 -106.5q0 -69 -47.5 -111t-106.5 -42q-69 0 -111 47t-42 106z" />
<glyph unicode="&#xc5;" horiz-adv-x="1679" d="M20 262l48 -8q20 -2 33.5 -4.5t20 -3t23.5 -0.5h2l93 215l-117 -2v291q102 -9 233 -21l152 352q91 208 119 404q-70 77 -70 174q0 112 83 189t183 77q108 0 187.5 -80.5t79.5 -185.5q0 -99 -70 -176l334 -795h205v-229l-111 2l90 -213q5 1 18.5 2t27 2.5t26.5 3.5l49 6 l-4 -264l-348 4l-111 -4l-2 4l-266 -4l-4 264l49 -6q88 -10 119 -10h2l-95 225q-55 2 -118 2q-125 0 -371 -6l-94 -221h2q4 0 114 8l50 4l-4 -260l-226 4l-327 -4zM614 705q180 -17 267 -17h28l-147 356zM700 1659q0 -48 39.5 -85.5t83.5 -37.5t83.5 37.5t39.5 85.5 t-39.5 85.5t-83.5 37.5t-83.5 -37.5t-39.5 -85.5z" />
<glyph unicode="&#xc6;" horiz-adv-x="2375" d="M20 262l50 -6q21 -2 35 -5t22.5 -4t24.5 -1h2l122 291l-153 -17v291l264 -14l121 284q92 216 92 435q265 -41 318 -41h477q73 0 277 10.5t372 20.5l168 10l45 -545l-283 -29q-9 58 -22.5 100.5t-29 73.5t-40.5 51.5t-49.5 33t-64.5 18.5t-77 8t-94 2h-122v-451 q43 0 73.5 12t51 38.5t33.5 52t32.5 68.5t36.5 71l100 -62v-524l-100 -41q-15 26 -36.5 69t-34 63.5t-34 44.5t-51 34t-71.5 10v-368h133q51 0 86.5 1.5t76 7t68 16t57.5 27.5t51 43t40.5 61.5t33 83t23.5 108.5l283 -29l-54 -606q-716 41 -880 41h-486l-10 268l49 -8 q93 -14 119 -14v350q-198 -10 -266 -10q-45 0 -246 -21l-137 -317q39 4 76 6l49 4l-4 -260l-226 4l-286 -4zM649 784q22 -1 75.5 -3.5t74.5 -2.5h266v451q-83 0 -162 -15l-74 -14z" />
<glyph unicode="&#xc7;" horiz-adv-x="1474" d="M41 737q0 369 189 563.5t548 194.5q193 0 350 -104v75l2 50l263 -5v-507h-283h-2v8q-24 118 -101 177.5t-229 59.5q-160 0 -243.5 -131.5t-83.5 -380.5t105 -380.5t304 -131.5q71 0 134 23t109.5 62t79 78.5t58.5 84.5l213 -123q-91 -159 -246 -261t-362 -109l-19 -76 q4 0 14 1t15 1q40 0 76 -9t69.5 -28.5t53.5 -57t20 -87.5q0 -104 -56 -158.5t-165 -54.5q-74 0 -146 35t-118 89l53 62q15 -19 48.5 -28t62.5 -9q49 0 76.5 29t27.5 65q0 33 -31.5 54.5t-81.5 21.5q-24 0 -51 -6l39 158q-338 22 -515 215t-177 540z" />
<glyph unicode="&#xc8;" d="M35 1206l10 269h490q73 0 287.5 10.5t392.5 20.5l178 10l45 -545l-283 -29q-9 57 -24 100t-33.5 74t-47.5 51.5t-57 33t-72 18.5t-83 8t-99 2h-125v-410q51 0 88.5 13t69.5 47t48.5 58t49.5 81q9 14 13 22l98 -61v-524l-98 -41q-5 9 -25.5 44.5t-27 46t-25.5 39t-29.5 38 t-31 28.5t-38 25.5t-41.5 13t-51 6.5v-409h138q61 0 102.5 2t90.5 10t82 22.5t67.5 40t57.5 62t42.5 89.5t30.5 122l282 -29l-53 -606q-758 41 -922 41h-485l-10 268l49 -8q93 -14 119 -14v983q-41 0 -121 -15zM492 1780l147 219l365 -305l-115 -138z" />
<glyph unicode="&#xc9;" d="M35 1206l10 269h490q73 0 287.5 10.5t392.5 20.5l178 10l45 -545l-283 -29q-9 57 -24 100t-33.5 74t-47.5 51.5t-57 33t-72 18.5t-83 8t-99 2h-125v-410q51 0 88.5 13t69.5 47t48.5 58t49.5 81q9 14 13 22l98 -61v-524l-98 -41q-5 9 -25.5 44.5t-27 46t-25.5 39t-29.5 38 t-31 28.5t-38 25.5t-41.5 13t-51 6.5v-409h138q61 0 102.5 2t90.5 10t82 22.5t67.5 40t57.5 62t42.5 89.5t30.5 122l282 -29l-53 -606q-758 41 -922 41h-485l-10 268l49 -8q93 -14 119 -14v983q-41 0 -121 -15zM492 1694l344 305l168 -199l-398 -244z" />
<glyph unicode="&#xca;" d="M35 1206l10 269h490q73 0 287.5 10.5t392.5 20.5l178 10l45 -545l-283 -29q-9 57 -24 100t-33.5 74t-47.5 51.5t-57 33t-72 18.5t-83 8t-99 2h-125v-410q51 0 88.5 13t69.5 47t48.5 58t49.5 81q9 14 13 22l98 -61v-524l-98 -41q-5 9 -25.5 44.5t-27 46t-25.5 39t-29.5 38 t-31 28.5t-38 25.5t-41.5 13t-51 6.5v-409h138q61 0 102.5 2t90.5 10t82 22.5t67.5 40t57.5 62t42.5 89.5t30.5 122l282 -29l-53 -606q-758 41 -922 41h-485l-10 268l49 -8q93 -14 119 -14v983q-41 0 -121 -15zM338 1690l315 243h185l295 -231l-181 -135l-215 176l-209 -182 z" />
<glyph unicode="&#xcb;" d="M35 1206l10 269h490q73 0 287.5 10.5t392.5 20.5l178 10l45 -545l-283 -29q-9 57 -24 100t-33.5 74t-47.5 51.5t-57 33t-72 18.5t-83 8t-99 2h-125v-410q51 0 88.5 13t69.5 47t48.5 58t49.5 81q9 14 13 22l98 -61v-524l-98 -41q-5 9 -25.5 44.5t-27 46t-25.5 39t-29.5 38 t-31 28.5t-38 25.5t-41.5 13t-51 6.5v-409h138q61 0 102.5 2t90.5 10t82 22.5t67.5 40t57.5 62t42.5 89.5t30.5 122l282 -29l-53 -606q-758 41 -922 41h-485l-10 268l49 -8q93 -14 119 -14v983q-41 0 -121 -15zM338 1761q0 69 47.5 111.5t106.5 42.5q69 0 111 -47.5 t42 -106.5q0 -69 -47 -111t-106 -42q-69 0 -111.5 47t-42.5 106zM829 1761q0 69 47.5 111.5t106.5 42.5q69 0 111.5 -47.5t42.5 -106.5q0 -69 -47.5 -111t-106.5 -42q-69 0 -111.5 47t-42.5 106z" />
<glyph unicode="&#xcc;" horiz-adv-x="901" d="M37 266l49 -8q64 -12 160 -12v983q-96 0 -160 -12l-49 -9l4 269l410 -7l409 7l4 -269l-49 9q-64 12 -160 12v-983q96 0 160 12l49 8l-4 -268l-409 6l-410 -6zM205 1780l147 219l365 -305l-115 -138z" />
<glyph unicode="&#xcd;" horiz-adv-x="901" d="M37 266l49 -8q64 -12 160 -12v983q-96 0 -160 -12l-49 -9l4 269l410 -7l409 7l4 -269l-49 9q-64 12 -160 12v-983q96 0 160 12l49 8l-4 -268l-409 6l-410 -6zM205 1694l344 305l168 -199l-398 -244z" />
<glyph unicode="&#xce;" horiz-adv-x="901" d="M37 266l49 -8q64 -12 160 -12v983q-96 0 -160 -12l-49 -9l4 269l410 -7l409 7l4 -269l-49 9q-64 12 -160 12v-983q96 0 160 12l49 8l-4 -268l-409 6l-410 -6zM51 1690l316 243h184l295 -231l-180 -135l-215 176l-209 -182z" />
<glyph unicode="&#xcf;" horiz-adv-x="901" d="M37 266l49 -8q64 -12 160 -12v983q-96 0 -160 -12l-49 -9l4 269l410 -7l409 7l4 -269l-49 9q-64 12 -160 12v-983q96 0 160 12l49 8l-4 -268l-409 6l-410 -6zM51 1761q0 69 47.5 111.5t106.5 42.5q69 0 111 -47.5t42 -106.5q0 -69 -47 -111t-106 -42q-69 0 -111.5 47 t-42.5 106zM543 1761q0 69 47 111.5t106 42.5q69 0 111.5 -47.5t42.5 -106.5q0 -69 -47.5 -111t-106.5 -42q-69 0 -111 47t-42 106z" />
<glyph unicode="&#xd0;" horiz-adv-x="1597" d="M20 604v266q113 -4 226 -6v369q-82 0 -156 -14l-53 -13l4 269l633 14q2 0 141 3t141 3q101 0 188.5 -33.5t152 -91t115 -132t81.5 -160t47 -172t16 -169.5q0 -101 -22 -204t-70 -203t-116.5 -177.5t-170 -125t-221.5 -47.5q-2 0 -141 3t-141 3l-633 14l-4 268l53 -12 q74 -14 156 -14v368zM655 233l82 -2q200 0 305 129.5t105 376.5t-105 376.5t-305 129.5l-82 -2v-377l226 6v-266q-113 4 -226 6v-377z" />
<glyph unicode="&#xd1;" horiz-adv-x="1679" d="M37 262l49 -6q88 -10 119 -10v839q0 146 -119 181l-49 14l4 199l287 -9l188 7l713 -881v633q-31 0 -119 -10l-49 -7l4 265l287 -7l286 7l4 -265l-49 7q-88 10 -118 10v-1235q-238 6 -246 6h-55l-723 893v-647q30 0 118 10l49 6l-4 -264l-286 4l-287 -4zM465 1640l14 99 q19 102 66 158.5t135 56.5q47 0 164.5 -51.5t163.5 -51.5q68 0 84 80l241 -43l-16 -100q-18 -100 -65 -152.5t-136 -52.5q-47 0 -164.5 51.5t-163.5 51.5q-67 0 -83 -80z" />
<glyph unicode="&#xd2;" d="M41 737q0 369 189 563.5t548 194.5t548.5 -194.5t189.5 -563.5t-189.5 -563t-548.5 -194t-548 194t-189 563zM451 737q0 -249 94 -380.5t274 -131.5q140 0 213.5 131.5t73.5 380.5t-94.5 380.5t-274.5 131.5q-139 0 -212.5 -131.5t-73.5 -380.5zM532 1780l148 219 l364 -305l-114 -138z" />
<glyph unicode="&#xd3;" d="M41 737q0 369 189 563.5t548 194.5t548.5 -194.5t189.5 -563.5t-189.5 -563t-548.5 -194t-548 194t-189 563zM451 737q0 -249 94 -380.5t274 -131.5q140 0 213.5 131.5t73.5 380.5t-94.5 380.5t-274.5 131.5q-139 0 -212.5 -131.5t-73.5 -380.5zM532 1694l345 305 l167 -199l-397 -244z" />
<glyph unicode="&#xd4;" d="M41 737q0 369 189 563.5t548 194.5t548.5 -194.5t189.5 -563.5t-189.5 -563t-548.5 -194t-548 194t-189 563zM379 1690l315 243h185l295 -231l-181 -135l-215 176l-209 -182zM451 737q0 -249 94 -380.5t274 -131.5q140 0 213.5 131.5t73.5 380.5t-94.5 380.5 t-274.5 131.5q-139 0 -212.5 -131.5t-73.5 -380.5z" />
<glyph unicode="&#xd5;" d="M41 737q0 369 189 563.5t548 194.5t548.5 -194.5t189.5 -563.5t-189.5 -563t-548.5 -194t-548 194t-189 563zM342 1640l14 99q19 102 66 158.5t135 56.5q47 0 164.5 -51.5t163.5 -51.5q68 0 84 80l241 -43l-16 -100q-18 -100 -65 -152.5t-136 -52.5q-47 0 -164 51.5 t-163 51.5q-68 0 -84 -80zM451 737q0 -249 94 -380.5t274 -131.5q140 0 213.5 131.5t73.5 380.5t-94.5 380.5t-274.5 131.5q-139 0 -212.5 -131.5t-73.5 -380.5z" />
<glyph unicode="&#xd6;" d="M41 737q0 369 189 563.5t548 194.5t548.5 -194.5t189.5 -563.5t-189.5 -563t-548.5 -194t-548 194t-189 563zM379 1761q0 69 47 111.5t106 42.5q69 0 111.5 -47.5t42.5 -106.5q0 -69 -47.5 -111t-106.5 -42q-69 0 -111 47t-42 106zM451 737q0 -249 94 -380.5t274 -131.5 q140 0 213.5 131.5t73.5 380.5t-94.5 380.5t-274.5 131.5q-139 0 -212.5 -131.5t-73.5 -380.5zM870 1761q0 69 47.5 111.5t106.5 42.5q69 0 111.5 -47.5t42.5 -106.5q0 -69 -47.5 -111t-106.5 -42q-69 0 -111.5 47t-42.5 106z" />
<glyph unicode="&#xd7;" horiz-adv-x="983" d="M51 485l264 252l-264 254l189 189l252 -265l253 265l189 -189l-264 -254l264 -252l-189 -188l-253 264l-252 -264z" />
<glyph unicode="&#xd8;" d="M41 737q0 369 189 563.5t548 194.5q232 0 398 -84l122 156l207 -133l-143 -172q154 -192 154 -525q0 -369 -189.5 -563t-548.5 -194q-233 0 -397 83l-123 -155l-207 133l144 172q-154 192 -154 524zM451 737q0 -112 18 -198l217 260l289 362q-88 88 -238 88 q-139 0 -212.5 -131.5t-73.5 -380.5zM582 313q88 -88 237 -88q140 0 213.5 131.5t73.5 380.5q0 109 -19 199l-219 -262z" />
<glyph unicode="&#xd9;" horiz-adv-x="1617" d="M27 1212l4 265l368 -7l369 7l4 -265l-49 7q-88 10 -119 10v-658q0 -127 72 -195.5t194 -68.5q151 0 229.5 71t78.5 195v656q-31 0 -119 -10l-49 -7l4 265l286 -4l287 4l4 -265l-49 7q-88 10 -119 10v-737q0 -232 -161 -372t-433 -140q-309 0 -471.5 137.5t-162.5 374.5 v737q-31 0 -119 -10zM645 1780l148 219l364 -305l-115 -138z" />
<glyph unicode="&#xda;" horiz-adv-x="1617" d="M27 1212l4 265l368 -7l369 7l4 -265l-49 7q-88 10 -119 10v-658q0 -127 72 -195.5t194 -68.5q151 0 229.5 71t78.5 195v656q-31 0 -119 -10l-49 -7l4 265l286 -4l287 4l4 -265l-49 7q-88 10 -119 10v-737q0 -232 -161 -372t-433 -140q-309 0 -471.5 137.5t-162.5 374.5 v737q-31 0 -119 -10zM645 1694l344 305l168 -199l-397 -244z" />
<glyph unicode="&#xdb;" horiz-adv-x="1617" d="M27 1212l4 265l368 -7l369 7l4 -265l-49 7q-88 10 -119 10v-658q0 -127 72 -195.5t194 -68.5q151 0 229.5 71t78.5 195v656q-31 0 -119 -10l-49 -7l4 265l286 -4l287 4l4 -265l-49 7q-88 10 -119 10v-737q0 -232 -161 -372t-433 -140q-309 0 -471.5 137.5t-162.5 374.5 v737q-31 0 -119 -10zM492 1690l315 243h184l295 -231l-180 -135l-215 176l-209 -182z" />
<glyph unicode="&#xdc;" horiz-adv-x="1617" d="M27 1212l4 265l368 -7l369 7l4 -265l-49 7q-88 10 -119 10v-658q0 -127 72 -195.5t194 -68.5q151 0 229.5 71t78.5 195v656q-31 0 -119 -10l-49 -7l4 265l286 -4l287 4l4 -265l-49 7q-88 10 -119 10v-737q0 -232 -161 -372t-433 -140q-309 0 -471.5 137.5t-162.5 374.5 v737q-31 0 -119 -10zM492 1761q0 69 47 111.5t106 42.5q69 0 111.5 -47.5t42.5 -106.5q0 -69 -47.5 -111t-106.5 -42q-69 0 -111 47t-42 106zM983 1761q0 69 47.5 111.5t106.5 42.5q69 0 111 -47.5t42 -106.5q0 -69 -47 -111t-106 -42q-69 0 -111.5 47t-42.5 106z" />
<glyph unicode="&#xdd;" horiz-adv-x="1597" d="M20 1212l5 265l358 -7l358 7l4 -265l-49 7q-15 2 -48.5 5t-37.5 3l275 -434l278 432q-4 -1 -37 -2t-41 -2l-49 -4l4 260l246 -7l287 7l4 -260q-30 6 -74 6q-31 0 -47 -12.5t-41 -51.5l-285 -440q-47 -73 -67.5 -109t-36.5 -89.5t-19 -108t-3 -156.5v-10q95 0 159 12l49 8 l-4 -268l-409 6l-410 -6l-4 268l49 -8q64 -12 160 -12v129q-1 68 -15.5 114t-48.5 99l-358 567q-25 39 -42 52.5t-42 13.5q-13 0 -36 -4t-32 -5zM631 1694l344 305l168 -199l-398 -244z" />
<glyph unicode="&#xde;" d="M37 266l49 -8q64 -12 160 -12v344v725q-76 0 -156 -15l-53 -12l4 268l596 15l16 -205l191 4q4 0 60.5 1t60.5 1q257 0 404 -131t147 -371t-147 -370.5t-404 -130.5q-4 0 -85 2t-85 2l-140 4v-131q50 0 160 8l49 4l-4 -260l-409 6l-410 -6zM655 602q20 0 60 -1t59 -1 q171 0 251.5 64.5t80.5 191.5q0 142 -77.5 203t-252.5 61q-20 0 -60 -1t-61 -1v-516z" />
<glyph unicode="&#xdf;" horiz-adv-x="1720" d="M37 1118l49 -4q106 -8 160 -8v49q0 194 150.5 308t422.5 114q277 0 446 -92.5t169 -243.5q0 -50 -29.5 -96t-72 -80.5t-84.5 -65.5t-71.5 -64t-29.5 -63q0 -43 30.5 -76.5t79.5 -57t108 -46t117.5 -51.5t107.5 -65t79.5 -94.5t30.5 -133.5q0 -180 -120.5 -274t-350.5 -94 q-75 0 -146 24.5t-122 67.5q0 -12 -5 -84l-2 -27l-176 19v389h203q9 -89 70 -126.5t178 -37.5q48 0 85.5 37.5t37.5 95.5q0 41 -25 75t-64.5 59t-88 49t-96.5 52.5t-87.5 63t-64.5 86.5t-25 117q0 64 17 114t41 81t48 57.5t41 58.5t17 70q0 77 -51 124.5t-135 47.5 q-109 0 -166.5 -63t-57.5 -183v-901q0 -41 6.5 -127.5t6.5 -128.5q-135 14 -217 14l-383 -6l-11 268l49 -8q80 -12 140 -12v614l-205 -2z" />
<glyph unicode="&#xe0;" horiz-adv-x="1515" d="M41 614q0 305 114.5 462t333.5 157l412 -86l82 82l328 6v-989q40 0 114 14l54 12l-4 -276l-410 6l-82 141l-494 -153q-218 0 -333 160t-115 464zM440 614q0 -372 215 -372l246 41v637l-246 41q-109 0 -162 -79.5t-53 -267.5zM451 1534l147 219l365 -305l-115 -137z" />
<glyph unicode="&#xe1;" horiz-adv-x="1515" d="M41 614q0 305 114.5 462t333.5 157l412 -86l82 82l328 6v-989q40 0 114 14l54 12l-4 -276l-410 6l-82 141l-494 -153q-218 0 -333 160t-115 464zM440 614q0 -372 215 -372l246 41v637l-246 41q-109 0 -162 -79.5t-53 -267.5zM451 1448l344 305l168 -199l-398 -243z" />
<glyph unicode="&#xe2;" horiz-adv-x="1515" d="M41 614q0 305 114.5 462t333.5 157l412 -86l82 82l328 6v-989q40 0 114 14l54 12l-4 -276l-410 6l-82 141l-494 -153q-218 0 -333 160t-115 464zM297 1444l315 244h185l295 -232l-181 -135l-215 176l-209 -182zM440 614q0 -372 215 -372l246 41v637l-246 41 q-109 0 -162 -79.5t-53 -267.5z" />
<glyph unicode="&#xe3;" horiz-adv-x="1515" d="M41 614q0 305 114.5 462t333.5 157l412 -86l82 82l328 6v-989q40 0 114 14l54 12l-4 -276l-410 6l-82 141l-494 -153q-218 0 -333 160t-115 464zM260 1395l14 98q19 102 66 158.5t135 56.5q47 0 164.5 -51t163.5 -51q68 0 84 80l241 -44l-16 -100q-18 -100 -65 -152.5 t-136 -52.5q-47 0 -164 51.5t-163 51.5q-68 0 -84 -80zM440 614q0 -372 215 -372l246 41v637l-246 41q-109 0 -162 -79.5t-53 -267.5z" />
<glyph unicode="&#xe4;" horiz-adv-x="1515" d="M41 614q0 305 114.5 462t333.5 157l412 -86l82 82l328 6v-989q40 0 114 14l54 12l-4 -276l-410 6l-82 141l-494 -153q-218 0 -333 160t-115 464zM297 1516q0 69 47.5 111t106.5 42q69 0 111 -47t42 -106q0 -69 -47 -111.5t-106 -42.5q-69 0 -111.5 47.5t-42.5 106.5z M440 614q0 -372 215 -372l246 41v637l-246 41q-109 0 -162 -79.5t-53 -267.5zM788 1516q0 69 47.5 111t106.5 42q69 0 111.5 -47t42.5 -106q0 -69 -47.5 -111.5t-106.5 -42.5q-69 0 -111.5 47.5t-42.5 106.5z" />
<glyph unicode="&#xe5;" horiz-adv-x="1515" d="M41 614q0 305 114.5 462t333.5 157l412 -86l82 82l328 6v-989q40 0 114 14l54 12l-4 -276l-410 6l-82 141l-494 -153q-218 0 -333 160t-115 464zM440 614q0 -372 215 -372l246 41v637l-246 41q-109 0 -162 -79.5t-53 -267.5zM451 1536q0 101 74 173.5t171 72.5 q95 0 170.5 -71t75.5 -175q0 -101 -74.5 -173.5t-171.5 -72.5q-95 0 -170 71t-75 175zM573 1536q0 -49 39 -86t84 -37t84 37.5t39 85.5q0 49 -39 86t-84 37t-84 -37.5t-39 -85.5z" />
<glyph unicode="&#xe6;" horiz-adv-x="2232" d="M41 614q0 305 114.5 462t333.5 157l453 -86l82 102h123v-106q165 106 430 106q178 0 314.5 -61t215 -183.5t78.5 -291.5q0 -78 -16 -160l-856 20q9 -169 92 -258.5t233 -89.5q206 0 344 191l213 -125q-99 -141 -251 -226t-347 -85q-282 0 -450 110l-164 53l-494 -153 q-218 0 -333 160t-115 464zM440 614q0 -372 215 -372l246 41v331v306l-246 41q-109 0 -162 -79.5t-53 -267.5zM1327 778h463q2 16 2 45q0 63 -17 104.5t-49 61.5t-66.5 27.5t-82.5 7.5q-97 0 -161 -64t-89 -182z" />
<glyph unicode="&#xe7;" horiz-adv-x="1351" d="M41 614q0 310 173.5 472.5t502.5 162.5q183 0 309 -108q0 49 2 76l2 32l260 4v-495h-284q-18 125 -85 185.5t-204 60.5q-129 0 -197.5 -100t-68.5 -290t83.5 -289.5t243.5 -99.5q206 0 344 191l213 -125q-99 -141 -251 -226t-347 -85h-30l-19 -76q4 0 14 1t15 1 q40 0 76 -9t69.5 -28.5t53.5 -57t20 -87.5q0 -105 -56.5 -160.5t-164.5 -55.5q-74 0 -146 36t-118 91l53 62q15 -20 48.5 -29.5t61.5 -9.5q49 0 77 29t28 65q0 33 -31.5 54.5t-81.5 21.5q-24 0 -51 -6l41 166q-271 32 -413 191.5t-142 434.5z" />
<glyph unicode="&#xe8;" horiz-adv-x="1372" d="M41 614q0 310 173.5 472.5t502.5 162.5q178 0 314.5 -61t215 -183.5t78.5 -291.5q0 -78 -16 -160l-856 20q9 -169 92 -258.5t233 -89.5q206 0 344 191l213 -125q-99 -141 -251 -226t-347 -85q-340 0 -518 162t-178 472zM467 778h463q2 16 2 45q0 63 -17 104.5t-49 61.5 t-66.5 27.5t-82.5 7.5q-97 0 -161 -64t-89 -182zM471 1534l147 219l365 -305l-115 -137z" />
<glyph unicode="&#xe9;" horiz-adv-x="1372" d="M41 614q0 310 173.5 472.5t502.5 162.5q178 0 314.5 -61t215 -183.5t78.5 -291.5q0 -78 -16 -160l-856 20q9 -169 92 -258.5t233 -89.5q206 0 344 191l213 -125q-99 -141 -251 -226t-347 -85q-340 0 -518 162t-178 472zM467 778h463q2 16 2 45q0 63 -17 104.5t-49 61.5 t-66.5 27.5t-82.5 7.5q-97 0 -161 -64t-89 -182zM471 1448l344 305l168 -199l-397 -243z" />
<glyph unicode="&#xea;" horiz-adv-x="1372" d="M41 614q0 310 173.5 472.5t502.5 162.5q178 0 314.5 -61t215 -183.5t78.5 -291.5q0 -78 -16 -160l-856 20q9 -169 92 -258.5t233 -89.5q206 0 344 191l213 -125q-99 -141 -251 -226t-347 -85q-340 0 -518 162t-178 472zM317 1444l316 244h184l295 -232l-180 -135 l-215 176l-209 -182zM467 778h463q2 16 2 45q0 63 -17 104.5t-49 61.5t-66.5 27.5t-82.5 7.5q-97 0 -161 -64t-89 -182z" />
<glyph unicode="&#xeb;" horiz-adv-x="1372" d="M41 614q0 310 173.5 472.5t502.5 162.5q178 0 314.5 -61t215 -183.5t78.5 -291.5q0 -78 -16 -160l-856 20q9 -169 92 -258.5t233 -89.5q206 0 344 191l213 -125q-99 -141 -251 -226t-347 -85q-340 0 -518 162t-178 472zM317 1516q0 69 47.5 111t106.5 42q69 0 111.5 -47 t42.5 -106q0 -69 -47.5 -111.5t-106.5 -42.5q-69 0 -111.5 47.5t-42.5 106.5zM467 778h463q2 16 2 45q0 63 -17 104.5t-49 61.5t-66.5 27.5t-82.5 7.5q-97 0 -161 -64t-89 -182zM809 1516q0 69 47.5 111t106.5 42q69 0 111 -47t42 -106q0 -69 -47 -111.5t-106 -42.5 q-69 0 -111.5 47.5t-42.5 106.5z" />
<glyph unicode="&#xec;" horiz-adv-x="901" d="M37 266l49 -8q64 -12 160 -12v737q-96 0 -160 -12l-49 -8l4 268l369 -6l266 6q0 -24 -10.5 -114t-10.5 -134v-737q96 0 160 12l49 8l-4 -268l-409 6l-410 -6zM205 1534l147 219l365 -305l-115 -137z" />
<glyph unicode="&#xed;" horiz-adv-x="901" d="M37 266l49 -8q64 -12 160 -12v737q-96 0 -160 -12l-49 -8l4 268l369 -6l266 6q0 -24 -10.5 -114t-10.5 -134v-737q96 0 160 12l49 8l-4 -268l-409 6l-410 -6zM205 1448l344 305l168 -199l-398 -243z" />
<glyph unicode="&#xee;" horiz-adv-x="901" d="M10 1444l316 244h184l295 -232l-180 -135l-215 176l-209 -182zM37 266l49 -8q64 -12 160 -12v737q-96 0 -160 -12l-49 -8l4 268l369 -6l266 6q0 -24 -10.5 -114t-10.5 -134v-737q96 0 160 12l49 8l-4 -268l-409 6l-410 -6z" />
<glyph unicode="&#xef;" horiz-adv-x="901" d="M0 1516q0 69 47.5 111t106.5 42q69 0 111 -47t42 -106q0 -69 -47 -111.5t-106 -42.5q-69 0 -111.5 47.5t-42.5 106.5zM37 266l49 -8q64 -12 160 -12v737q-96 0 -160 -12l-49 -8l4 268l369 -6l266 6q0 -24 -10.5 -114t-10.5 -134v-737q96 0 160 12l49 8l-4 -268l-409 6 l-410 -6zM492 1516q0 69 47 111t106 42q69 0 111.5 -47t42.5 -106q0 -69 -47.5 -111.5t-106.5 -42.5q-69 0 -111 47.5t-42 106.5z" />
<glyph unicode="&#xf0;" horiz-adv-x="1392" d="M41 635q0 280 168 426.5t489 146.5q130 0 234 -55q-35 76 -92.5 131.5t-139.5 110.5l-73 -33l-158 -70l-57 131q79 19 153 50q-40 20 -170 75l133 189q171 -47 324 -131l268 129l58 -131l-191 -84q172 -125 270.5 -338.5t98.5 -440.5q0 -118 -26.5 -229t-81 -208 t-131.5 -169t-185.5 -113.5t-235.5 -41.5q-320 0 -487.5 168t-167.5 487zM451 635q0 -200 64 -305t185 -105q117 0 181.5 123t64.5 328q0 155 -61 221t-187 66q-120 0 -183.5 -84t-63.5 -244z" />
<glyph unicode="&#xf1;" horiz-adv-x="1802" d="M37 266l49 -8q64 -12 160 -12v737q-96 0 -160 -12l-49 -8l4 266l451 20l100 -164l514 164q247 0 348.5 -113t101.5 -388v-502q96 0 160 12l49 8l-4 -268l-409 6l-369 -6l-4 264l49 -6q88 -10 119 -10v364q0 212 -51 299.5t-174 87.5l-267 -77v-674q31 0 119 10l49 6 l-4 -264l-368 6l-410 -6zM340 1395l14 98q19 102 66 158.5t135 56.5q47 0 164.5 -51t163.5 -51q68 0 84 80l241 -44l-16 -100q-18 -100 -65 -152.5t-136 -52.5q-47 0 -164 51.5t-163 51.5q-68 0 -84 -80z" />
<glyph unicode="&#xf2;" horiz-adv-x="1392" d="M41 614q0 310 167.5 472.5t487.5 162.5t488 -162.5t168 -472.5t-168 -472t-488 -162t-487.5 162t-167.5 472zM451 614q0 -190 73 -289.5t213 -99.5q100 0 152.5 99.5t52.5 289.5t-73.5 290t-213.5 100q-100 0 -152 -99.5t-52 -290.5zM451 1534l147 219l365 -305 l-115 -137z" />
<glyph unicode="&#xf3;" horiz-adv-x="1392" d="M41 614q0 310 167.5 472.5t487.5 162.5t488 -162.5t168 -472.5t-168 -472t-488 -162t-487.5 162t-167.5 472zM451 614q0 -190 73 -289.5t213 -99.5q100 0 152.5 99.5t52.5 289.5t-73.5 290t-213.5 100q-100 0 -152 -99.5t-52 -290.5zM451 1448l344 305l168 -199 l-398 -243z" />
<glyph unicode="&#xf4;" horiz-adv-x="1392" d="M41 614q0 310 167.5 472.5t487.5 162.5t488 -162.5t168 -472.5t-168 -472t-488 -162t-487.5 162t-167.5 472zM297 1444l315 244h185l295 -232l-181 -135l-215 176l-209 -182zM451 614q0 -190 73 -289.5t213 -99.5q100 0 152.5 99.5t52.5 289.5t-73.5 290t-213.5 100 q-100 0 -152 -99.5t-52 -290.5z" />
<glyph unicode="&#xf5;" horiz-adv-x="1392" d="M41 614q0 310 167.5 472.5t487.5 162.5t488 -162.5t168 -472.5t-168 -472t-488 -162t-487.5 162t-167.5 472zM260 1395l14 98q19 102 66 158.5t135 56.5q47 0 164.5 -51t163.5 -51q68 0 84 80l241 -44l-16 -100q-18 -100 -65 -152.5t-136 -52.5q-47 0 -164 51.5 t-163 51.5q-68 0 -84 -80zM451 614q0 -190 73 -289.5t213 -99.5q100 0 152.5 99.5t52.5 289.5t-73.5 290t-213.5 100q-100 0 -152 -99.5t-52 -290.5z" />
<glyph unicode="&#xf6;" horiz-adv-x="1392" d="M41 614q0 310 167.5 472.5t487.5 162.5t488 -162.5t168 -472.5t-168 -472t-488 -162t-487.5 162t-167.5 472zM297 1516q0 69 47.5 111t106.5 42q69 0 111 -47t42 -106q0 -69 -47 -111.5t-106 -42.5q-69 0 -111.5 47.5t-42.5 106.5zM451 614q0 -190 73 -289.5t213 -99.5 q100 0 152.5 99.5t52.5 289.5t-73.5 290t-213.5 100q-100 0 -152 -99.5t-52 -290.5zM788 1516q0 69 47.5 111t106.5 42q69 0 111.5 -47t42.5 -106q0 -69 -47.5 -111.5t-106.5 -42.5q-69 0 -111.5 47.5t-42.5 106.5z" />
<glyph unicode="&#xf7;" horiz-adv-x="1064" d="M41 604v266q409 -10 491 -10l492 10v-266q-410 10 -492 10zM369 287q0 73 49.5 118.5t113.5 45.5q73 0 118.5 -50t45.5 -114q0 -73 -50 -118.5t-114 -45.5q-73 0 -118 50t-45 114zM369 1188q0 73 49.5 118.5t113.5 45.5q73 0 118.5 -50t45.5 -114q0 -73 -50 -118.5 t-114 -45.5q-73 0 -118 50t-45 114z" />
<glyph unicode="&#xf8;" horiz-adv-x="1392" d="M41 614q0 310 167.5 472.5t487.5 162.5q191 0 330 -59l109 131l206 -133l-120 -139q131 -155 131 -435q0 -310 -168 -472t-488 -162q-190 0 -329 59l-109 -131l-207 133l123 139q-133 157 -133 434zM451 614q0 -58 6 -108l155 178l215 264q-68 56 -172 56 q-100 0 -152 -99.5t-52 -290.5zM565 283q71 -58 172 -58q100 0 152.5 99.5t52.5 289.5q0 58 -6 107l-162 -184z" />
<glyph unicode="&#xf9;" horiz-adv-x="1732" d="M16 965l4 268l410 -6l225 6q0 -44 -10 -126.5t-10 -121.5v-364q0 -212 51 -300t174 -88l225 84v668q-30 0 -118 -10l-49 -6l4 264l368 -6l226 6q0 -44 -10.5 -126.5t-10.5 -121.5v-737q96 0 160 12l49 8l-4 -266l-451 -20l-112 182l-461 -182q-248 0 -349.5 113 t-101.5 388v502q-95 0 -159 -12zM614 1534l148 219l364 -305l-114 -137z" />
<glyph unicode="&#xfa;" horiz-adv-x="1732" d="M16 965l4 268l410 -6l225 6q0 -44 -10 -126.5t-10 -121.5v-364q0 -212 51 -300t174 -88l225 84v668q-30 0 -118 -10l-49 -6l4 264l368 -6l226 6q0 -44 -10.5 -126.5t-10.5 -121.5v-737q96 0 160 12l49 8l-4 -266l-451 -20l-112 182l-461 -182q-248 0 -349.5 113 t-101.5 388v502q-95 0 -159 -12zM614 1448l344 305l168 -199l-397 -243z" />
<glyph unicode="&#xfb;" horiz-adv-x="1732" d="M16 965l4 268l410 -6l225 6q0 -44 -10 -126.5t-10 -121.5v-364q0 -212 51 -300t174 -88l225 84v668q-30 0 -118 -10l-49 -6l4 264l368 -6l226 6q0 -44 -10.5 -126.5t-10.5 -121.5v-737q96 0 160 12l49 8l-4 -266l-451 -20l-112 182l-461 -182q-248 0 -349.5 113 t-101.5 388v502q-95 0 -159 -12zM461 1444l315 244h185l294 -232l-180 -135l-215 176l-209 -182z" />
<glyph unicode="&#xfc;" horiz-adv-x="1732" d="M16 965l4 268l410 -6l225 6q0 -44 -10 -126.5t-10 -121.5v-364q0 -212 51 -300t174 -88l225 84v668q-30 0 -118 -10l-49 -6l4 264l368 -6l226 6q0 -44 -10.5 -126.5t-10.5 -121.5v-737q96 0 160 12l49 8l-4 -266l-451 -20l-112 182l-461 -182q-248 0 -349.5 113 t-101.5 388v502q-95 0 -159 -12zM461 1516q0 69 47 111t106 42q69 0 111.5 -47t42.5 -106q0 -69 -47.5 -111.5t-106.5 -42.5q-69 0 -111 47.5t-42 106.5zM952 1516q0 69 47.5 111t106.5 42q69 0 111.5 -47t42.5 -106q0 -69 -47.5 -111.5t-106.5 -42.5q-69 0 -111.5 47.5 t-42.5 106.5z" />
<glyph unicode="&#xfd;" d="M18 -455l7 244h122q212 0 336.5 61.5t124.5 184.5q0 79 -57 184l-379 678q-28 49 -42 63.5t-38 14.5q-14 0 -39.5 -3.5t-32.5 -4.5l5 264l358 -6l358 6l4 -264l-49 6q-50 8 -86 8l289 -545l248 543q-46 0 -78 -4l-49 -4l4 260l221 -6l287 6l4 -256q-75 6 -76 6 q-26 0 -38.5 -12.5t-32.5 -53.5l-238 -524q-45 -98 -82 -174.5t-80.5 -157t-83 -141t-86 -120.5t-93 -102.5t-101 -79.5t-113 -60t-125.5 -35.5t-141 -12.5q-55 0 -127 11.5t-101 25.5zM655 1448l344 305l168 -199l-397 -243z" />
<glyph unicode="&#xfe;" horiz-adv-x="1515" d="M0 -225l49 -8q69 -13 156 -13v1555q-35 0 -115 -15l-53 -12l4 274l328 -4l266 7q0 -24 -10.5 -114t-10.5 -134v-164l412 92q218 0 333.5 -160.5t115.5 -464.5q0 -280 -157.5 -447t-416.5 -167l-287 8v-254q91 0 160 13l49 8l-4 -269l-409 7l-406 -7zM614 233l62 -2 q175 0 287 102t112 281q0 373 -215 373l-246 -43v-711z" />
<glyph unicode="&#xff;" d="M18 -455l7 244h122q212 0 336.5 61.5t124.5 184.5q0 79 -57 184l-379 678q-28 49 -42 63.5t-38 14.5q-14 0 -39.5 -3.5t-32.5 -4.5l5 264l358 -6l358 6l4 -264l-49 6q-50 8 -86 8l289 -545l248 543q-46 0 -78 -4l-49 -4l4 260l221 -6l287 6l4 -256q-75 6 -76 6 q-26 0 -38.5 -12.5t-32.5 -53.5l-238 -524q-45 -98 -82 -174.5t-80.5 -157t-83 -141t-86 -120.5t-93 -102.5t-101 -79.5t-113 -60t-125.5 -35.5t-141 -12.5q-55 0 -127 11.5t-101 25.5zM481 1516q0 69 47.5 111t106.5 42q69 0 111 -47t42 -106q0 -69 -47 -111.5t-106 -42.5 q-69 0 -111.5 47.5t-42.5 106.5zM973 1516q0 69 47 111t106 42q69 0 111.5 -47t42.5 -106q0 -69 -47.5 -111.5t-106.5 -42.5q-69 0 -111 47.5t-42 106.5z" />
<glyph unicode="&#x152;" horiz-adv-x="2375" d="M41 737q0 369 189 563.5t548 194.5q80 0 211 -9t199 -11h207q73 0 277 10.5t372 20.5l168 10l45 -545l-283 -29q-9 58 -22.5 100.5t-29 73.5t-40.5 51.5t-49.5 33t-64.5 18.5t-77 8t-94 2h-122v-410q36 0 65.5 9t48.5 20t39.5 36.5t30.5 42t31 55.5t32 58l99 -61v-524 l-99 -41q-13 22 -33 59.5t-31.5 58.5t-31.5 48t-39 41t-48 24t-64 10v-409h133q51 0 86.5 1.5t76 7t68 16t57.5 27.5t51 43t40.5 61.5t33 83t23.5 108.5l283 -29l-54 -606q-716 41 -880 41h-205q-45 -2 -183.5 -11t-226.5 -9q-359 0 -548 194t-189 563zM451 737 q0 -249 94 -380.5t274 -131.5l127 8q24 2 44.5 4t41.5 5t33 4v983q-39 0 -121 6l-207 14q-139 0 -212.5 -131.5t-73.5 -380.5z" />
<glyph unicode="&#x153;" horiz-adv-x="2273" d="M41 614q0 310 167.5 472.5t487.5 162.5q282 0 455 -170q180 170 467 170q178 0 314.5 -61t215 -183.5t78.5 -291.5q0 -78 -16 -160l-856 20q9 -169 92 -258.5t233 -89.5q206 0 344 191l213 -125q-99 -141 -251 -226t-347 -85q-303 0 -485 172q-172 -172 -457 -172 q-320 0 -487.5 162t-167.5 472zM451 614q0 -190 73 -289.5t213 -99.5q100 0 152.5 99.5t52.5 289.5t-73.5 290t-213.5 100q-100 0 -152 -99.5t-52 -290.5zM1368 778h463q2 16 2 45q0 63 -17 104.5t-49 61.5t-66.5 27.5t-82.5 7.5q-97 0 -161 -64t-89 -182z" />
<glyph unicode="&#x178;" horiz-adv-x="1597" d="M20 1212l5 265l358 -7l358 7l4 -265l-49 7q-15 2 -48.5 5t-37.5 3l275 -434l278 432q-4 -1 -37 -2t-41 -2l-49 -4l4 260l246 -7l287 7l4 -260q-30 6 -74 6q-31 0 -47 -12.5t-41 -51.5l-285 -440q-47 -73 -67.5 -109t-36.5 -89.5t-19 -108t-3 -156.5v-10q95 0 159 12l49 8 l-4 -268l-409 6l-410 -6l-4 268l49 -8q64 -12 160 -12v129q-1 68 -15.5 114t-48.5 99l-358 567q-25 39 -42 52.5t-42 13.5q-13 0 -36 -4t-32 -5zM477 1761q0 69 47.5 111.5t106.5 42.5q69 0 111 -47.5t42 -106.5q0 -69 -47 -111t-106 -42q-69 0 -111.5 47t-42.5 106z M969 1761q0 69 47 111.5t106 42.5q69 0 111.5 -47.5t42.5 -106.5q0 -69 -47.5 -111t-106.5 -42q-69 0 -111 47t-42 106z" />
<glyph unicode="&#x2c6;" horiz-adv-x="901" d="M51 1362l316 244h184l295 -232l-180 -135l-215 176l-209 -182z" />
<glyph unicode="&#x2dc;" horiz-adv-x="655" d="M-213 1313l14 98q19 102 66 158.5t135 56.5q47 0 164.5 -51t163.5 -51q68 0 84 80l241 -43l-16 -101q-18 -100 -65 -152.5t-136 -52.5q-47 0 -164 51.5t-163 51.5q-68 0 -84 -80z" />
<glyph unicode="&#x2000;" horiz-adv-x="999" />
<glyph unicode="&#x2001;" horiz-adv-x="1999" />
<glyph unicode="&#x2002;" horiz-adv-x="999" />
<glyph unicode="&#x2003;" horiz-adv-x="1999" />
<glyph unicode="&#x2004;" horiz-adv-x="666" />
<glyph unicode="&#x2005;" horiz-adv-x="499" />
<glyph unicode="&#x2006;" horiz-adv-x="333" />
<glyph unicode="&#x2007;" horiz-adv-x="333" />
<glyph unicode="&#x2008;" horiz-adv-x="249" />
<glyph unicode="&#x2009;" horiz-adv-x="399" />
<glyph unicode="&#x200a;" horiz-adv-x="111" />
<glyph unicode="&#x2010;" horiz-adv-x="901" d="M41 604v266q328 -10 410 -10l409 10v-266q-327 10 -409 10z" />
<glyph unicode="&#x2011;" horiz-adv-x="901" d="M41 604v266q328 -10 410 -10l409 10v-266q-327 10 -409 10z" />
<glyph unicode="&#x2012;" horiz-adv-x="901" d="M41 604v266q328 -10 410 -10l409 10v-266q-327 10 -409 10z" />
<glyph unicode="&#x2013;" horiz-adv-x="983" d="M41 604v266q369 -10 451 -10l450 10v-266q-368 10 -450 10z" />
<glyph unicode="&#x2014;" horiz-adv-x="2007" d="M41 604v266q881 -10 963 -10l962 10v-266q-880 10 -962 10z" />
<glyph unicode="&#x2018;" horiz-adv-x="430" d="M35 1276q0 154 62 284.5t153 221.5l139 -119q-115 -144 -115 -242q42 -23 65 -62t23 -83q0 -70 -49 -117t-114 -47q-70 0 -117 49.5t-47 114.5z" />
<glyph unicode="&#x2019;" horiz-adv-x="430" d="M35 1108q115 144 115 242q-42 23 -65.5 62t-23.5 83q0 70 49.5 117t114.5 47q70 0 117 -49.5t47 -114.5q0 -154 -62 -284.5t-153 -221.5z" />
<glyph unicode="&#x201a;" horiz-adv-x="430" d="M35 -264q115 144 115 241q-42 23 -65.5 62.5t-23.5 83.5q0 70 49.5 117t114.5 47q70 0 117 -49.5t47 -114.5q0 -154 -62 -284.5t-153 -221.5z" />
<glyph unicode="&#x201c;" horiz-adv-x="819" d="M35 1276q0 154 62 284.5t153 221.5l139 -119q-115 -144 -115 -242q42 -23 65 -62t23 -83q0 -70 -49 -117t-114 -47q-70 0 -117 49.5t-47 114.5zM424 1276q0 154 62 284.5t153 221.5l139 -119q-114 -143 -114 -242q42 -23 65 -62t23 -83q0 -70 -49.5 -117t-114.5 -47 q-70 0 -117 49.5t-47 114.5z" />
<glyph unicode="&#x201d;" horiz-adv-x="819" d="M35 1108q115 144 115 242q-42 23 -65.5 62t-23.5 83q0 70 49.5 117t114.5 47q70 0 117 -49.5t47 -114.5q0 -154 -62 -284.5t-153 -221.5zM424 1108q115 144 115 242q-42 23 -65 62t-23 83q0 70 49 117t114 47q70 0 117 -49.5t47 -114.5q0 -154 -62 -284.5t-153 -221.5z " />
<glyph unicode="&#x201e;" horiz-adv-x="819" d="M35 -264q115 144 115 241q-42 23 -65.5 62.5t-23.5 83.5q0 70 49.5 117t114.5 47q70 0 117 -49.5t47 -114.5q0 -154 -62 -284.5t-153 -221.5zM424 -264q115 144 115 241q-42 23 -65 62.5t-23 83.5q0 70 49 117t114 47q70 0 117 -49.5t47 -114.5q0 -154 -62 -284.5 t-153 -221.5z" />
<glyph unicode="&#x2022;" horiz-adv-x="573" d="M41 696q0 101 72.5 173.5t173.5 72.5t173 -72.5t72 -173.5t-72 -173t-173 -72t-173.5 72t-72.5 173z" />
<glyph unicode="&#x2026;" horiz-adv-x="1187" d="M41 123q0 73 50 118.5t114 45.5q73 0 118.5 -50t45.5 -114q0 -73 -50 -118.5t-114 -45.5q-73 0 -118.5 50t-45.5 114zM430 123q0 73 50 118.5t114 45.5q73 0 118.5 -50t45.5 -114q0 -73 -50 -118.5t-114 -45.5q-73 0 -118.5 50t-45.5 114zM819 123q0 73 50 118.5 t114 45.5q73 0 118.5 -50t45.5 -114q0 -73 -50 -118.5t-114 -45.5q-73 0 -118.5 50t-45.5 114z" />
<glyph unicode="&#x202f;" horiz-adv-x="399" />
<glyph unicode="&#x2039;" horiz-adv-x="614" d="M41 567v99l340 409l176 -201l-305 -256v-8l305 -276l-190 -191z" />
<glyph unicode="&#x203a;" horiz-adv-x="614" d="M57 354l305 256v8l-305 277l191 190l325 -423v-99l-340 -409z" />
<glyph unicode="&#x205f;" horiz-adv-x="499" />
<glyph unicode="&#x20ac;" horiz-adv-x="1597" d="M20 492l11 163h135q-2 27 -2 82v41h-103l11 164h108q50 271 233 412t488 141q193 0 350 -104l2 125l263 -5v-507h-283h-2v8q-24 118 -101 177.5t-229 59.5q-246 0 -309 -307h401l-10 -164h-410v-41q0 -15 5 -82h374l-10 -163h-334q43 -131 138 -199t237 -68q71 0 134 23 t109.5 62t79 78.5t58.5 84.5l213 -123q-95 -165 -257.5 -267.5t-377.5 -102.5q-310 0 -501 130.5t-251 381.5h-170z" />
<glyph unicode="&#x2122;" horiz-adv-x="2375" d="M43 1200l35 367h12q269 -13 375 -13h147q46 0 141.5 3t167.5 7l72 3h8l33 -367l-164 -16v8q-9 109 -59 153t-141 46v-574q13 0 63 8l39 6l-6 -180l-227 4l-226 -4l-8 180l39 -6q44 -8 64 -8v574q-95 -2 -142.5 -47.5t-56.5 -151.5l-2 -8zM1081 827l39 -4q49 -6 62 -6v574 q-13 0 -32.5 -3t-29.5 -4l-39 -4l2 176l191 -4l92 4l315 -534l320 532l76 -2l254 4l2 -180l-39 6q-46 9 -86 9v-574q36 0 86 8l39 6l-2 -180l-254 4l-230 -4l-2 176l39 -4q50 -6 62 -6v410l-308 -598h-28l-264 528v-340q5 0 15 1.5t21 2.5l39 4l-2 -174l-155 4l-181 -4z" />
<glyph unicode="&#x25fc;" horiz-adv-x="1228" d="M0 0v1229h1229v-1229h-1229z" />
</font>
</defs>
</svg>
