<?xml version="1.0" standalone="no"?><!DOCTYPE svg PUBLIC "-//W3C//DTD SVG 1.1//EN" "http://www.w3.org/Graphics/SVG/1.1/DTD/svg11.dtd"><svg t="1561360572214" class="icon" viewBox="0 0 1024 1024" version="1.1" xmlns="http://www.w3.org/2000/svg" p-id="1543" xmlns:xlink="http://www.w3.org/1999/xlink" width="20" height="20"><defs><style type="text/css"></style></defs><path d="M924.611765 256H761.976471c-21.082353 0-42.164706-9.035294-57.22353-24.094118s-24.094118-37.647059-24.094117-58.729411V3.011765L924.611765 256z" fill="#68ABE8" p-id="1544"></path><path d="M680.658824 3.011765" fill="#97D8FF" p-id="1545"></path><path d="M646.023529 435.2c30.117647 34.635294 46.682353 79.811765 46.682353 135.529412s-15.058824 100.894118-46.682353 135.529412c-31.623529 36.141176-76.8 54.211765-131.011764 54.211764-55.717647 0-99.388235-18.070588-131.011765-54.211764-30.117647-34.635294-45.176471-79.811765-45.176471-135.529412s15.058824-100.894118 45.176471-135.529412c31.623529-36.141176 75.294118-54.211765 131.011765-54.211765 54.211765-1.505882 97.882353 16.564706 131.011764 54.211765z m-222.870588 33.129412c-21.082353 25.6-30.117647 58.729412-30.117647 102.4 0 42.164706 10.541176 76.8 30.117647 100.894117 21.082353 25.6 51.2 39.152941 90.352941 39.152942s69.270588-12.047059 90.352942-37.647059c21.082353-24.094118 31.623529-58.729412 31.623529-102.4s-10.541176-78.305882-31.623529-103.905883c-21.082353-25.6-51.2-37.647059-90.352942-37.647058s-69.270588 13.552941-90.352941 39.152941z" fill="#FFFFFF" p-id="1546"></path><path d="M513.505882 429.176471c-39.152941 0-69.270588 13.552941-90.352941 39.152941-21.082353 25.6-30.117647 58.729412-30.117647 102.4 0 42.164706 10.541176 76.8 30.117647 100.894117 21.082353 25.6 51.2 39.152941 90.352941 39.152942s69.270588-12.047059 90.352942-37.647059c21.082353-24.094118 31.623529-58.729412 31.623529-102.4s-10.541176-78.305882-31.623529-103.905883c-21.082353-25.6-51.2-37.647059-90.352942-37.647058z" fill="#97D8FF" p-id="1547"></path><path d="M924.611765 256H761.976471c-21.082353 0-42.164706-9.035294-57.22353-24.094118s-24.094118-37.647059-24.094117-58.729411V3.011765H194.258824C171.670588 3.011765 150.588235 10.541176 135.529412 27.105882s-24.094118 37.647059-24.094118 60.235294v843.294118c0 46.682353 36.141176 82.823529 81.317647 82.82353H843.294118c21.082353 0 42.164706-9.035294 57.223529-24.094118s24.094118-36.141176 24.094118-58.729412V256zM646.023529 706.258824c-31.623529 36.141176-76.8 54.211765-131.011764 54.211764-55.717647 0-99.388235-18.070588-131.011765-54.211764-30.117647-34.635294-45.176471-79.811765-45.176471-135.529412s15.058824-100.894118 45.176471-135.529412c31.623529-36.141176 75.294118-54.211765 131.011765-54.211765 55.717647 0 99.388235 18.070588 131.011764 54.211765 30.117647 34.635294 46.682353 79.811765 46.682353 135.529412-1.505882 55.717647-16.564706 100.894118-46.682353 135.529412z" fill="#97D8FF" p-id="1548"></path></svg>