<?xml version="1.0" standalone="no"?><!DOCTYPE svg PUBLIC "-//W3C//DTD SVG 1.1//EN" "http://www.w3.org/Graphics/SVG/1.1/DTD/svg11.dtd"><svg t="1561360537883" class="icon" viewBox="0 0 1024 1024" version="1.1" xmlns="http://www.w3.org/2000/svg" p-id="1302" xmlns:xlink="http://www.w3.org/1999/xlink" width="20" height="20"><defs><style type="text/css"></style></defs><path d="M920.094118 259.011765H758.964706c-45.176471 0-82.823529-37.647059-82.82353-84.329412V6.023529l243.952942 252.988236z" fill="#8190DC" p-id="1303"></path><path d="M707.764706 492.423529H331.294118c-15.058824 0-27.105882-12.047059-27.105883-27.105882s12.047059-27.105882 27.105883-27.105882h376.470588c15.058824 0 27.105882 12.047059 27.105882 27.105882s-12.047059 27.105882-27.105882 27.105882zM707.764706 730.352941H331.294118c-15.058824 0-27.105882-12.047059-27.105883-27.105882S316.235294 677.647059 331.294118 677.647059h376.470588c15.058824 0 27.105882 12.047059 27.105882 27.105882s-12.047059 25.6-27.105882 25.6z" fill="#FFFFFF" p-id="1304"></path><path d="M920.094118 259.011765H758.964706c-45.176471 0-82.823529-37.647059-82.82353-84.329412V6.023529H189.741176C167.152941 6.023529 146.070588 15.058824 131.011765 30.117647c-15.058824 16.564706-24.094118 37.647059-24.094118 60.235294v846.305883c0 22.588235 9.035294 43.670588 24.094118 58.729411s36.141176 24.094118 57.223529 24.094118h650.541177c21.082353 0 42.164706-9.035294 58.729411-24.094118 15.058824-15.058824 24.094118-37.647059 24.094118-58.729411l-1.505882-677.647059zM707.764706 730.352941H331.294118c-15.058824 0-27.105882-12.047059-27.105883-27.105882S316.235294 677.647059 331.294118 677.647059h376.470588c15.058824 0 27.105882 12.047059 27.105882 27.105882s-12.047059 25.6-27.105882 25.6z m0-237.929412H331.294118c-15.058824 0-27.105882-12.047059-27.105883-27.105882s12.047059-27.105882 27.105883-27.105882h376.470588c15.058824 0 27.105882 12.047059 27.105882 27.105882s-12.047059 27.105882-27.105882 27.105882z" fill="#97BAFF" p-id="1305"></path></svg>