<?xml version="1.0" standalone="no"?><!DOCTYPE svg PUBLIC "-//W3C//DTD SVG 1.1//EN" "http://www.w3.org/Graphics/SVG/1.1/DTD/svg11.dtd"><svg t="1561360548437" class="icon" viewBox="0 0 1024 1024" version="1.1" xmlns="http://www.w3.org/2000/svg" p-id="1422" xmlns:xlink="http://www.w3.org/1999/xlink" width="20" height="20"><defs><style type="text/css"></style></defs><path d="M924.611765 256H761.976471c-21.082353 0-42.164706-9.035294-57.22353-24.094118s-24.094118-37.647059-24.094117-58.729411V3.011765L924.611765 256z" fill="#F7BE45" p-id="1423"></path><path d="M444.235294 603.858824c4.517647 4.517647 7.529412 12.047059 7.529412 19.57647s-3.011765 13.552941-7.529412 19.576471c-6.023529 4.517647-12.047059 7.529412-19.57647 7.529411s-13.552941-3.011765-18.070589-7.529411c-6.023529-6.023529-7.529412-12.047059-7.529411-19.576471s3.011765-15.058824 7.529411-19.57647c4.517647-4.517647 10.541176-7.529412 18.070589-7.529412s15.058824 1.505882 19.57647 7.529412zM542.117647 603.858824c4.517647 4.517647 7.529412 12.047059 7.529412 19.57647s-3.011765 13.552941-7.529412 19.576471c-6.023529 4.517647-12.047059 7.529412-19.576471 7.529411s-13.552941-3.011765-18.070588-7.529411c-6.023529-6.023529-7.529412-12.047059-7.529412-19.576471s3.011765-15.058824 7.529412-19.57647c4.517647-4.517647 10.541176-7.529412 18.070588-7.529412s13.552941 1.505882 19.576471 7.529412zM638.494118 603.858824c4.517647 4.517647 7.529412 12.047059 7.529411 19.57647s-3.011765 13.552941-7.529411 19.576471c-6.023529 4.517647-12.047059 7.529412-19.576471 7.529411s-13.552941-3.011765-18.070588-7.529411c-6.023529-6.023529-7.529412-12.047059-7.529412-19.576471s3.011765-15.058824 7.529412-19.57647c4.517647-4.517647 10.541176-7.529412 18.070588-7.529412 9.035294 0 15.058824 1.505882 19.576471 7.529412z" fill="#FFFFFF" p-id="1424"></path><path d="M373.458824 754.447059l-176.188236-124.988235 1.505883-37.647059 176.188235-111.435294 24.094118 39.152941-147.576471 93.364706 149.082353 103.905882zM656.564706 754.447059l-25.6-37.647059 149.082353-103.905882-149.082353-93.364706 24.094118-39.152941 177.694117 111.435294v37.647059z" fill="#FFFFFF" p-id="1425"></path><path d="M761.976471 256c-21.082353 0-42.164706-9.035294-57.22353-24.094118s-24.094118-37.647059-24.094117-58.729411V3.011765H194.258824C171.670588 3.011765 150.588235 10.541176 135.529412 27.105882s-24.094118 37.647059-24.094118 60.235294v843.294118c0 46.682353 36.141176 82.823529 81.317647 82.82353H843.294118c21.082353 0 42.164706-9.035294 57.223529-24.094118s24.094118-36.141176 24.094118-58.729412V256H761.976471zM373.458824 754.447059l-176.188236-124.988235 1.505883-37.647059 176.188235-111.435294 24.094118 37.647058-147.576471 93.364706 149.082353 105.411765-27.105882 37.647059z m70.77647-112.941177c-6.023529 4.517647-12.047059 7.529412-19.57647 7.529412s-13.552941-3.011765-18.070589-7.529412c-6.023529-6.023529-7.529412-12.047059-7.529411-19.57647s3.011765-15.058824 7.529411-19.576471c4.517647-4.517647 10.541176-7.529412 18.070589-7.529412s13.552941 3.011765 19.57647 7.529412c4.517647 4.517647 7.529412 12.047059 7.529412 19.576471 1.505882 7.529412-1.505882 15.058824-7.529412 19.57647z m97.882353 0c-6.023529 4.517647-12.047059 7.529412-19.576471 7.529412s-13.552941-3.011765-18.070588-7.529412c-6.023529-6.023529-7.529412-12.047059-7.529412-19.57647s3.011765-15.058824 7.529412-19.576471c4.517647-4.517647 10.541176-7.529412 18.070588-7.529412s13.552941 3.011765 19.576471 7.529412c4.517647 4.517647 7.529412 12.047059 7.529412 19.576471s-3.011765 15.058824-7.529412 19.57647z m58.729412 0c-6.023529-6.023529-7.529412-12.047059-7.529412-19.57647s3.011765-15.058824 7.529412-19.576471c4.517647-4.517647 10.541176-7.529412 18.070588-7.529412s13.552941 3.011765 19.576471 7.529412c4.517647 4.517647 7.529412 12.047059 7.529411 19.576471s-3.011765 13.552941-7.529411 19.57647c-6.023529 4.517647-12.047059 7.529412-19.576471 7.529412s-13.552941-1.505882-18.070588-7.529412z m55.717647 112.941177l-25.6-36.141177 149.082353-105.411764-147.576471-93.364706 24.094118-37.647059 176.188235 111.435294 1.505883 37.647059-177.694118 123.482353z" fill="#FFDA84" p-id="1426"></path></svg>